<svg width="352" height="347" viewBox="0 0 352 347" fill="none" xmlns="http://www.w3.org/2000/svg">
<path d="M57.9528 136.459L135.819 58.8067C137.318 57.3115 138.761 55.7436 140.215 54.1903C179.87 11.859 251.218 28.5288 267.466 85.0741L281.006 180.436C297.163 236.682 246.092 289.198 189.581 274.459L95.9105 259.015C41.8155 244.914 21.3572 178.797 57.9528 136.459Z" fill="#EFF4FF" fill-opacity="0.38"/>
<path d="M74.3528 116.426L159.954 61.2876C161.602 60.2258 163.214 59.0874 164.832 57.9643C208.968 27.3626 270.311 56.3396 274.014 110.689L267.71 199.65C271.389 253.711 214.935 291.31 166.648 266.968L84.8596 234.757C38.6354 211.463 32.9844 147.629 74.3528 116.426Z" fill="#EFF4FF" fill-opacity="0.66"/>
<path d="M104.664 107.627L182.511 77.5285C184.009 76.9488 185.491 76.3016 186.977 75.6679C227.473 58.405 271.924 91.8196 265.902 136.064L246.118 206.439C240.125 250.448 188.582 271.29 153.845 243.757L93.5163 204.362C60.2624 178.012 66.2899 125.831 104.664 107.627Z" fill="#E4EDFF" fill-opacity="0.75"/>
<path d="M131.619 105.414L196.951 96.8672C198.209 96.7025 199.467 96.4827 200.725 96.274C235.015 90.5945 262.94 124.595 250.109 157.464L221.868 207.833C209.103 240.526 165.669 246.886 144.11 219.225L105.116 177.655C84.4763 151.18 98.7722 112.214 131.619 105.414Z" fill="#C2D5FF"/>
<path d="M222.032 220.422C211.639 220.422 211.639 211.15 201.259 211.15C190.867 211.15 190.867 220.422 180.487 220.422C170.107 220.422 170.094 211.15 159.714 211.15C149.322 211.15 149.322 220.422 138.942 220.422C128.562 220.422 128.549 211.15 118.169 211.15C107.789 211.15 107.777 220.422 97.3844 220.422C86.9919 220.422 86.9919 211.15 76.5994 211.15" stroke="#0D0D54" stroke-width="3" stroke-miterlimit="10"/>
<path d="M222.032 220.422C211.639 220.422 211.639 211.15 201.259 211.15C190.867 211.15 190.867 220.422 180.487 220.422C170.107 220.422 170.094 211.15 159.714 211.15C149.322 211.15 149.322 220.422 138.942 220.422C128.562 220.422 128.549 211.15 118.169 211.15C107.789 211.15 107.777 220.422 97.3844 220.422C86.9919 220.422 86.9919 211.15 76.5994 211.15" stroke="#0D0D54" stroke-width="3" stroke-miterlimit="10"/>
<path d="M137.492 156.233C135.075 156.233 133.008 155.915 131.28 155.299C130.591 154.179 130 153.025 129.497 151.85C129.005 150.675 128.326 148.983 127.473 146.786L127.441 146.632C127.408 146.203 127.539 145.852 127.834 145.555C129.245 146.028 130.558 146.324 131.783 146.434C133.008 146.544 134.288 146.434 135.633 146.094L136.792 145.808L137.569 145.665C138.302 145.478 139.035 145.171 139.746 144.742C140.118 144.468 140.325 144.072 140.369 143.556L137.492 142.875C135.294 142.38 133.27 141.765 131.422 141.04C129.475 140.194 127.911 138.887 126.719 137.129C126.106 136.163 125.636 135.053 125.329 133.801C124.575 130.747 124.837 128.066 126.139 125.748C127.266 123.694 129.048 121.991 131.498 120.618C133.631 119.475 136.06 118.553 138.783 117.872C140.391 117.465 142.644 117.103 145.565 116.773C145.871 116.773 146.287 116.74 146.823 116.674L148.343 116.619C149.48 116.553 150.312 116.454 150.826 116.323C150.859 116.323 150.924 116.356 151.034 116.432C151.143 116.509 151.231 116.586 151.318 116.63C151.504 116.839 151.657 116.927 151.788 116.894H151.832L151.876 116.872L152.237 117.916C152.368 118.421 152.543 118.959 152.784 119.508C153.09 120.332 153.363 121.244 153.615 122.222C153.823 123.068 153.932 123.694 153.932 124.089C153.932 124.804 153.779 125.375 153.429 125.781L148.802 126.287L148.321 126.407L147.643 126.572C146.549 126.847 145.335 127.275 143.979 127.868L142.48 128.626C142.108 128.791 141.933 128.912 141.955 128.978C142.163 129.791 142.841 130.428 144.011 130.901C144.558 131.054 145.094 131.164 145.63 131.23C146.155 131.296 146.494 131.351 146.637 131.384C149.185 131.505 151.548 132.23 153.713 133.559C154.72 134.174 155.562 134.888 156.24 135.69C156.918 136.492 157.356 137.327 157.575 138.173C157.706 138.678 157.771 139.239 157.782 139.854C158.187 142.457 157.826 144.896 156.689 147.159C155.529 149.213 153.867 150.938 151.69 152.311C149.83 153.608 147.457 154.618 144.58 155.343C142.305 155.915 139.943 156.222 137.503 156.255L137.492 156.233Z" fill="#867DFF"/>
<path d="M185.226 151.762C185.105 151.356 185.083 150.642 185.149 149.598C185.368 146.489 185.532 143.71 185.652 141.271C185.805 137.756 186.024 134.053 186.298 130.154L187.129 118.344C187.151 118.025 187.304 117.718 187.577 117.432C187.851 117.147 188.124 117.015 188.398 117.037L193.582 117.465C194.545 117.575 195.803 117.674 197.367 117.795C199.62 117.96 201.37 118.058 202.606 118.113L204.279 118.179C206.095 118.234 207.583 118.311 208.753 118.388C210.645 118.52 212.428 118.97 214.102 119.739C216.071 120.596 217.624 121.947 218.761 123.793C220.041 125.792 220.566 128.396 220.336 131.615C219.954 137.053 218.51 140.908 216.027 143.171C213.817 145.314 210.689 146.236 206.62 145.951L200.44 145.511C200.407 146.335 200.364 147.214 200.298 148.148C200.276 148.467 200.243 148.851 200.189 149.301C200.145 149.752 200.09 150.345 200.036 151.092C199.948 152.268 199.686 153.015 199.248 153.3C198.898 153.597 198.264 153.718 197.367 153.652C196.043 153.553 195.124 153.509 194.61 153.509C192.532 153.366 190.881 153.278 189.634 153.267L186.112 153.015C185.597 152.982 185.302 152.564 185.204 151.762H185.226ZM203.35 139.25C203.984 139.294 204.498 138.612 204.903 137.206C205.209 136.262 205.494 134.844 205.745 132.955C205.876 131.922 205.986 130.758 206.084 129.472L206.128 128.879C206.172 128.308 206.15 127.44 206.084 126.287C206.008 125.638 205.909 125.111 205.789 124.727C205.669 124.342 205.494 124.013 205.264 123.749C205.045 123.408 204.783 123.233 204.487 123.211C204.334 123.211 204.203 123.266 204.083 123.397C203.962 123.529 203.853 123.705 203.754 123.914C203.383 124.529 202.978 125.946 202.551 128.143C202.42 128.78 202.267 129.747 202.125 131.021C201.829 132.977 201.578 135.602 201.337 138.898C201.392 138.975 201.468 139.03 201.556 139.074L202.092 139.162L203.361 139.25H203.35Z" fill="#867DFF"/>
<path d="M99.5925 197.275C97.8425 196.759 96.3987 196.067 95.272 195.188C94.9767 194.101 94.758 193.002 94.6048 191.914C94.4517 190.827 94.2767 189.256 94.047 187.235V187.103C94.0907 186.74 94.2548 186.466 94.5283 186.279C95.4689 186.982 96.3658 187.498 97.2299 187.85C98.094 188.201 99.0347 188.377 100.074 188.377H100.96L101.55 188.421C102.119 188.421 102.699 188.311 103.29 188.102C103.607 187.949 103.836 187.663 103.957 187.235L101.999 186.048C100.5 185.169 99.1441 184.225 97.93 183.225C96.6721 182.104 95.7752 180.676 95.2283 178.951C94.9548 178.007 94.8236 176.985 94.8236 175.865C94.8236 173.14 95.5017 170.943 96.858 169.273C98.0393 167.79 99.6363 166.725 101.66 166.087C103.41 165.571 105.324 165.318 107.424 165.318C108.66 165.318 110.355 165.483 112.521 165.824C112.74 165.89 113.046 165.945 113.44 166.01L114.545 166.285C115.387 166.472 115.999 166.56 116.393 166.56C116.415 166.56 116.459 166.604 116.524 166.692C116.59 166.779 116.645 166.856 116.689 166.922C116.787 167.131 116.885 167.241 116.984 167.241H117.06L117.137 168.197C117.137 168.647 117.17 169.141 117.246 169.647C117.323 170.405 117.356 171.218 117.356 172.096C117.356 172.854 117.323 173.404 117.246 173.733C117.126 174.338 116.896 174.777 116.579 175.052L113.145 174.502H112.259C111.416 174.502 110.465 174.612 109.382 174.821L108.168 175.139C107.873 175.205 107.719 175.26 107.719 175.326C107.719 176.051 108.102 176.732 108.868 177.37C109.24 177.611 109.612 177.82 109.973 177.985C110.345 178.15 110.574 178.27 110.673 178.325C112.499 178.962 114.074 180.072 115.398 181.643C116.01 182.368 116.492 183.148 116.842 183.961C117.181 184.785 117.356 185.565 117.356 186.323C117.356 186.773 117.301 187.268 117.214 187.773C117.039 190.047 116.338 192.013 115.103 193.683C113.899 195.166 112.379 196.265 110.563 196.957C108.988 197.649 107.096 198 104.876 198C103.125 198 101.364 197.759 99.5925 197.275Z" fill="#867DFF"/>
<path d="M121.129 196.045C121.107 195.957 121.096 195.803 121.096 195.595C121.096 195.287 121.14 194.837 121.25 194.232C121.293 193.837 121.337 193.529 121.381 193.299C121.414 193.068 121.446 192.892 121.468 192.771C122.212 188.498 122.934 184.741 123.645 181.5L126.226 167.131C126.226 167.065 126.259 166.977 126.336 166.856C126.412 166.735 126.5 166.659 126.598 166.626H126.784C126.784 166.626 126.817 166.67 126.894 166.67C127.189 166.67 127.517 166.626 127.889 166.538C128.261 166.45 128.589 166.406 128.884 166.406C129.431 166.406 129.934 166.45 130.394 166.538C130.612 166.538 130.864 166.549 131.137 166.582C131.411 166.615 131.695 166.626 131.991 166.626C132.089 166.626 132.198 166.593 132.319 166.538H133.828L134.714 166.494C134.889 166.461 135.097 166.45 135.338 166.45C135.535 166.45 135.633 166.439 135.633 166.406H139.035C140.413 166.406 141.321 166.439 141.769 166.494C141.846 166.494 141.944 166.494 142.086 166.516C142.218 166.527 142.305 166.571 142.327 166.626C142.502 166.626 142.666 166.615 142.841 166.582C143.016 166.549 143.169 166.538 143.322 166.538C143.661 166.45 144 166.406 144.318 166.406C144.46 166.406 144.613 166.45 144.766 166.538C144.919 166.626 145.072 166.67 145.247 166.67L145.433 166.626H145.543C145.619 166.692 145.696 166.768 145.783 166.878C145.871 166.988 145.915 167.065 145.915 167.131L148.496 181.5C149.284 185.048 149.994 188.806 150.64 192.771C150.64 192.958 150.684 193.145 150.793 193.365C150.815 193.573 150.859 193.87 150.902 194.232C150.946 194.595 150.979 194.903 150.979 195.144C151.001 195.265 151.012 195.43 151.012 195.65C151.012 196.078 150.935 196.419 150.793 196.693C150.695 196.88 150.541 196.968 150.344 196.968H149.863C149.491 196.968 149.207 196.957 149.01 196.924H146.385C146.188 196.924 146.09 196.913 146.09 196.88H143.76V196.792C143.661 196.726 143.541 196.704 143.388 196.704C143.366 196.737 143.344 196.77 143.311 196.792C143.311 196.858 143.29 196.88 143.235 196.88H142.83C142.71 196.814 142.458 196.792 142.086 196.792C141.343 196.726 140.763 196.704 140.347 196.704C140.205 196.43 140.041 195.891 139.888 195.067C139.724 194.243 139.56 193.343 139.385 192.343C139.33 191.86 139.286 191.519 139.232 191.343C138.717 191.464 138.039 191.53 137.197 191.53H134.977L134.714 192.98C134.397 194.979 134.134 196.221 133.938 196.704C133.839 196.704 133.719 196.737 133.566 196.792C133.511 196.825 133.456 196.858 133.38 196.88H133.238C133.084 196.88 132.975 196.847 132.909 196.792C132.855 196.726 132.8 196.704 132.723 196.704L131.061 196.792H129.912C129.814 196.858 129.694 196.88 129.541 196.88H125.658C125.384 196.913 124.837 196.924 123.995 196.924H123.032C122.836 196.957 122.551 196.968 122.179 196.968H121.731C121.414 196.968 121.184 196.66 121.064 196.056L121.129 196.045ZM138.608 183.587C138.532 183.159 138.411 182.357 138.236 181.182C138.182 180.874 138.061 180.061 137.864 178.732L137.569 176.546C137.492 175.941 137.427 175.403 137.35 174.953L137.317 174.359C137.241 174.206 137.208 174.074 137.208 173.953L137.175 173.678C137.153 173.744 137.142 173.832 137.142 173.953C137.142 174.074 137.121 174.151 137.066 174.184V174.37L136.989 174.964C136.967 175.172 136.935 175.414 136.902 175.667C136.869 175.919 136.825 176.205 136.771 176.513L136.585 177.787C136.311 179.698 136.158 180.808 136.103 181.105C136.081 181.434 136.016 181.94 135.917 182.61C135.863 182.818 135.819 183.137 135.764 183.565L135.469 185.653H137.35L137.613 185.565H137.689C137.985 185.565 138.203 185.598 138.357 185.653C138.455 185.653 138.542 185.675 138.63 185.719C138.717 185.763 138.794 185.806 138.871 185.828L138.608 183.598V183.587Z" fill="#867DFF"/>
<path d="M161.796 196.77C161.425 196.682 161.096 196.638 160.801 196.638C160.725 196.638 160.692 196.649 160.692 196.682H160.506C160.254 196.495 160.134 196.331 160.134 196.188L157.553 181.775C156.842 178.622 156.109 174.876 155.376 170.547C155.354 170.46 155.332 170.306 155.321 170.097C155.31 169.888 155.277 169.691 155.234 169.504C155.113 168.9 155.048 168.35 155.048 167.867C155.048 167.504 155.081 167.186 155.157 166.911C155.201 166.516 155.387 166.318 155.715 166.318H157.006C157.203 166.384 157.52 166.406 157.968 166.406L159.631 166.45H163.361C163.361 166.45 163.437 166.516 163.514 166.538C163.59 166.571 163.656 166.604 163.733 166.626C163.776 166.626 163.82 166.615 163.864 166.582C163.897 166.549 163.929 166.538 163.951 166.538C164.05 166.472 164.148 166.45 164.247 166.45H164.4L164.772 166.494C165.089 166.527 165.767 166.538 166.806 166.538C167.08 166.604 167.44 166.626 167.911 166.626C168.064 166.988 168.305 168.098 168.655 169.943L169.059 172.536C169.158 173.173 169.333 174.129 169.573 175.403C169.573 175.436 169.573 175.513 169.595 175.634C169.606 175.755 169.628 175.908 169.65 176.084C169.694 176.326 169.737 176.59 169.781 176.875C169.825 177.161 169.869 177.479 169.945 177.809C169.967 178.018 170.066 178.732 170.241 179.951L170.864 183.719L170.973 184.4V184.587C170.973 184.587 171.05 184.697 171.05 184.818L171.083 185.092L171.116 184.818C171.116 184.631 171.148 184.499 171.225 184.411C171.225 184.378 171.225 184.312 171.247 184.203C171.258 184.093 171.28 183.939 171.302 183.73C171.498 182.522 171.695 181.258 171.892 179.962L172.264 177.82C172.308 177.457 172.363 177.139 172.417 176.864C172.461 176.59 172.505 176.337 172.527 176.095L172.636 175.414C172.756 174.777 172.92 173.821 173.117 172.547L173.522 170.185C173.566 169.855 173.697 169.097 173.894 167.911C174.014 167.428 174.156 166.999 174.299 166.637C174.649 166.637 174.911 166.626 175.108 166.593L176.027 166.549L176.771 166.505L177.066 166.461H177.175C177.175 166.461 177.252 166.494 177.252 166.549C177.274 166.549 177.296 166.582 177.328 166.637C177.427 166.637 177.503 166.626 177.569 166.593C177.635 166.56 177.678 166.549 177.7 166.549V166.461H180.325C180.621 166.461 180.872 166.45 181.069 166.417H181.988C182.458 166.417 182.775 166.384 182.95 166.329H184.285C184.733 166.329 184.952 166.757 184.952 167.603L184.919 168.153C184.919 168.46 184.865 168.911 184.766 169.515C184.69 169.822 184.646 170.053 184.635 170.218C184.624 170.383 184.602 170.493 184.58 170.558C183.935 174.557 183.224 178.303 182.436 181.786L179.855 196.199C179.855 196.287 179.735 196.452 179.483 196.693H179.374L179.188 196.649C179.013 196.649 178.86 196.693 178.707 196.781C178.553 196.869 178.411 196.913 178.258 196.913C177.941 196.913 177.602 196.869 177.263 196.781C176.869 196.715 176.541 196.693 176.267 196.693C173.216 196.847 168.731 196.924 162.825 196.924C162.529 196.924 162.201 196.88 161.829 196.792L161.796 196.77Z" fill="#867DFF"/>
<path d="M195.715 196.77C195.343 196.682 195.015 196.638 194.72 196.638C194.643 196.638 194.61 196.649 194.61 196.682H194.424C194.173 196.495 194.052 196.331 194.052 196.188L191.471 181.775C190.76 178.622 190.027 174.876 189.294 170.547C189.273 170.46 189.251 170.306 189.24 170.097C189.229 169.888 189.196 169.691 189.152 169.504C189.032 168.9 188.966 168.35 188.966 167.867C188.966 167.504 188.999 167.186 189.076 166.911C189.119 166.516 189.305 166.318 189.634 166.318H190.924C191.121 166.384 191.438 166.406 191.887 166.406L193.549 166.45H197.279C197.279 166.45 197.356 166.516 197.432 166.538C197.509 166.571 197.574 166.604 197.651 166.626C197.695 166.626 197.739 166.615 197.782 166.582C197.815 166.549 197.848 166.538 197.87 166.538C197.968 166.472 198.067 166.45 198.165 166.45H198.318L198.69 166.494C199.007 166.527 199.685 166.538 200.725 166.538C200.998 166.604 201.359 166.626 201.829 166.626C201.982 166.988 202.223 168.098 202.573 169.943L202.978 172.536C203.076 173.173 203.251 174.129 203.492 175.403C203.492 175.436 203.492 175.513 203.514 175.634C203.525 175.755 203.547 175.908 203.568 176.084C203.612 176.326 203.656 176.59 203.7 176.875C203.743 177.161 203.787 177.479 203.864 177.809C203.886 178.018 203.984 178.732 204.159 179.951L204.783 183.719L204.892 184.4V184.587C204.892 184.587 204.969 184.697 204.969 184.818L205.001 185.092L205.034 184.818C205.034 184.631 205.067 184.499 205.144 184.411C205.144 184.378 205.143 184.312 205.165 184.203C205.176 184.093 205.198 183.939 205.22 183.73C205.417 182.522 205.614 181.258 205.811 179.962L206.183 177.82C206.226 177.457 206.281 177.139 206.336 176.864C206.379 176.59 206.423 176.337 206.445 176.095L206.554 175.414C206.675 174.777 206.839 173.821 207.036 172.547L207.44 170.185C207.484 169.855 207.615 169.097 207.812 167.911C207.933 167.428 208.075 166.999 208.217 166.637C208.567 166.637 208.83 166.626 209.026 166.593L209.945 166.549L210.689 166.505L210.984 166.461H211.094C211.094 166.461 211.17 166.494 211.17 166.549C211.192 166.549 211.214 166.582 211.247 166.637C211.345 166.637 211.422 166.626 211.488 166.593C211.553 166.56 211.597 166.549 211.619 166.549V166.461H214.244C214.539 166.461 214.791 166.45 214.988 166.417H215.906C216.377 166.417 216.694 166.384 216.869 166.329H218.203C218.652 166.329 218.871 166.757 218.871 167.603L218.838 168.153C218.838 168.46 218.783 168.911 218.685 169.515C218.608 169.822 218.564 170.053 218.553 170.218C218.542 170.383 218.521 170.493 218.499 170.558C217.853 174.557 217.142 178.303 216.355 181.786L213.774 196.199C213.774 196.287 213.653 196.452 213.402 196.693H213.292L213.106 196.649C212.931 196.649 212.778 196.693 212.625 196.781C212.472 196.869 212.33 196.913 212.177 196.913C211.859 196.913 211.52 196.869 211.181 196.781C210.787 196.715 210.459 196.693 210.186 196.693C207.134 196.847 202.65 196.924 196.743 196.924C196.448 196.924 196.12 196.88 195.748 196.792L195.715 196.77Z" fill="#867DFF"/>
<path d="M237.75 200.956C237.673 200.956 237.629 200.967 237.607 201L237.498 201.043C237.421 201.043 237.389 201.011 237.389 200.956C237.29 200.89 237.225 200.802 237.203 200.681C236.339 200.494 235.781 200.351 235.54 200.231L234.249 199.78H234.063C233.943 199.78 233.845 199.747 233.768 199.692C233.549 199.692 233.363 199.659 233.21 199.604C233.013 199.571 232.696 199.473 232.248 199.286C231.799 199.099 231.482 198.967 231.285 198.879C230.891 198.726 230.323 198.473 229.59 198.11C229.24 197.924 228.988 197.803 228.813 197.748L227.96 197.111C227.763 196.924 227.665 196.748 227.665 196.561C227.665 195.99 227.774 195.375 227.993 194.738C228.069 194.529 228.168 194.265 228.31 193.969C228.441 193.661 228.573 193.321 228.693 192.925C228.737 192.738 228.879 192.475 229.098 192.112C229.688 190.904 230.005 190.234 230.06 190.113C230.159 189.783 230.202 189.476 230.202 189.201C230.202 188.751 230.005 188.278 229.612 187.795C229.24 187.344 229.054 186.905 229.054 186.477C228.934 186.477 228.868 186.488 228.868 186.521H228.759C228.704 186.455 228.682 186.4 228.682 186.334C227.894 185.125 227.096 183.653 226.276 181.918C225.237 179.918 224.405 178.095 223.76 176.458C223.563 176.095 223.333 175.436 223.06 174.502C222.743 173.689 222.469 172.854 222.25 171.998C221.977 171.064 221.846 170.449 221.846 170.174C221.846 169.866 222.119 169.482 222.655 168.988C222.874 168.801 223.136 168.625 223.432 168.438C223.727 168.251 223.946 168.12 224.099 168.032C224.219 167.999 224.744 167.834 225.652 167.537L226.166 167.307C226.265 167.219 226.374 167.175 226.494 167.175C226.648 167.175 226.877 167.109 227.194 166.988C227.905 166.801 228.332 166.681 228.452 166.626L229.787 166.263C230.53 165.956 230.957 165.791 231.077 165.769L231.154 165.725H231.34C231.854 165.725 232.204 165.879 232.379 166.175C232.521 166.362 232.773 166.779 233.123 167.45C233.167 167.636 233.265 167.845 233.396 168.087C233.527 168.328 233.626 168.482 233.67 168.537L233.965 169.031L234.228 169.394C234.326 169.548 234.424 169.724 234.523 169.943C234.621 170.163 234.731 170.383 234.851 170.624C235.496 172.02 235.989 173.008 236.328 173.58C236.546 173.975 236.732 174.173 236.885 174.173C236.962 174.173 237.082 174.008 237.257 173.678C237.476 173.25 237.881 172.283 238.471 170.767C238.789 169.8 239.171 168.691 239.62 167.45C239.839 166.9 239.959 166.571 239.992 166.45C240.09 165.901 240.2 165.56 240.32 165.406C240.44 165.165 240.67 165.044 240.987 165.044C241.775 165.044 242.814 165.241 244.094 165.637C245.351 166.087 246.555 166.681 247.714 167.406C248.895 168.197 249.694 168.922 250.12 169.592C250.12 170.416 249.956 171.163 249.639 171.866L246.237 181.094L242.912 190.365L242.77 190.409C242.77 190.409 242.704 190.442 242.661 190.497C241.031 194.408 239.543 197.924 238.187 201.043C238.132 201.164 237.99 201.23 237.739 201.23V200.956H237.75Z" fill="#867DFF"/>
<path d="M172.045 118.981C177.222 118.981 181.419 117.737 181.419 116.202C181.419 114.667 177.222 113.422 172.045 113.422C166.868 113.422 162.672 114.667 162.672 116.202C162.672 117.737 166.868 118.981 172.045 118.981Z" fill="#867DFF"/>
<path d="M164.389 154.311C164.203 154.135 164.061 153.915 163.973 153.63C163.853 153.069 163.754 152.443 163.7 151.762C163.667 151.542 163.656 151.246 163.656 150.872V150.268L163.7 144.479C163.7 142.523 163.744 140.59 163.842 138.689V123.947C163.842 123.639 164.039 123.485 164.444 123.485C166.576 123.485 168.173 123.474 169.223 123.441H173.872C173.96 123.441 174.047 123.43 174.102 123.397C174.167 123.364 174.244 123.353 174.331 123.353C174.736 123.288 175.294 123.277 176.005 123.31C176.53 123.31 177.088 123.353 177.678 123.452C177.864 123.573 178.007 123.606 178.094 123.54C178.16 123.54 178.28 123.507 178.466 123.452C178.936 123.452 179.297 123.485 179.56 123.54C179.822 123.606 180.03 123.738 180.183 123.958C180.336 124.232 180.457 124.584 180.555 124.979C180.588 125.287 180.599 125.946 180.599 126.935V136.734C180.566 136.987 180.555 137.547 180.555 138.415C180.555 139.348 180.522 140.084 180.468 140.612L180.424 142.71C180.391 143.171 180.38 143.765 180.38 144.479L180.336 145.226V148.214C180.336 150.081 180.26 151.663 180.107 152.971C180.107 153.41 179.997 153.838 179.779 154.278C179.221 154.278 178.411 154.311 177.361 154.366C176.869 154.366 176.541 154.399 176.388 154.454H175.786C175.567 154.454 175.458 154.421 175.458 154.366C175.206 154.3 175.075 154.278 175.042 154.278L174.67 154.465H170.394C170.394 154.465 170.12 154.509 169.65 154.509H166.161L165.001 154.553C164.783 154.553 164.586 154.465 164.4 154.3L164.389 154.311Z" fill="#867DFF"/>
<path d="M166.62 153.124C166.434 152.949 166.292 152.729 166.205 152.443C166.084 151.883 165.986 151.257 165.931 150.576C165.898 150.356 165.887 150.059 165.887 149.686V149.082L165.931 143.292C165.931 141.337 165.975 139.403 166.073 137.503V122.76C166.073 122.453 166.27 122.299 166.675 122.299C168.808 122.299 170.405 122.288 171.455 122.255H176.103C176.191 122.255 176.278 122.244 176.333 122.211C176.399 122.178 176.475 122.167 176.563 122.167C176.967 122.101 177.525 122.09 178.236 122.123C178.761 122.123 179.319 122.167 179.91 122.266C180.096 122.387 180.238 122.42 180.325 122.354C180.391 122.354 180.511 122.321 180.697 122.266C181.168 122.266 181.529 122.299 181.791 122.354C182.054 122.42 182.261 122.552 182.415 122.771C182.568 123.046 182.688 123.397 182.786 123.793C182.819 124.101 182.83 124.76 182.83 125.748V135.547C182.797 135.8 182.786 136.36 182.786 137.228C182.786 138.162 182.754 138.898 182.699 139.425L182.655 141.524C182.622 141.985 182.611 142.578 182.611 143.292L182.568 144.039V147.027C182.568 148.895 182.491 150.477 182.338 151.784C182.338 152.224 182.229 152.652 182.01 153.091C181.452 153.091 180.643 153.124 179.593 153.179C179.1 153.179 178.772 153.212 178.619 153.267H178.017C177.799 153.267 177.689 153.234 177.689 153.179C177.438 153.113 177.307 153.091 177.274 153.091L176.902 153.278H172.625C172.625 153.278 172.352 153.322 171.881 153.322H168.392L167.233 153.366C167.014 153.366 166.817 153.278 166.631 153.113L166.62 153.124Z" stroke="#0D0D54" stroke-width="2" stroke-miterlimit="10"/>
<path d="M174.32 116.243C179.497 116.243 183.694 115.182 183.694 113.872C183.694 112.562 179.497 111.5 174.32 111.5C169.143 111.5 164.947 112.562 164.947 113.872C164.947 115.182 169.143 116.243 174.32 116.243Z" stroke="#0D0D54" stroke-width="2" stroke-miterlimit="10"/>
<path d="M140.325 155.442C137.908 155.442 135.841 155.124 134.113 154.509C133.424 153.388 132.833 152.235 132.33 151.059C131.838 149.884 131.159 148.192 130.306 145.995L130.273 145.841C130.241 145.413 130.372 145.061 130.667 144.764C132.078 145.237 133.391 145.533 134.616 145.643C135.841 145.753 137.121 145.643 138.466 145.303L139.625 145.017L140.402 144.874C141.135 144.687 141.868 144.38 142.579 143.951C142.951 143.677 143.158 143.281 143.202 142.765L140.325 142.084C138.127 141.59 136.103 140.974 134.255 140.249C132.308 139.403 130.744 138.096 129.552 136.338C128.939 135.372 128.469 134.262 128.162 133.01C127.408 129.956 127.67 127.275 128.972 124.957C130.098 122.903 131.881 121.2 134.331 119.827C136.464 118.685 138.893 117.762 141.616 117.081C143.224 116.674 145.477 116.312 148.398 115.982C148.704 115.982 149.12 115.949 149.655 115.883L151.176 115.828C152.313 115.762 153.145 115.664 153.659 115.532C153.692 115.532 153.757 115.565 153.867 115.642C153.976 115.718 154.063 115.795 154.151 115.839C154.337 116.048 154.49 116.136 154.621 116.103H154.665L154.709 116.081L155.07 117.125C155.201 117.63 155.376 118.168 155.617 118.718C155.923 119.541 156.196 120.453 156.448 121.431C156.656 122.277 156.765 122.903 156.765 123.299C156.765 124.013 156.612 124.584 156.262 124.99L151.635 125.496L151.154 125.617L150.476 125.781C149.382 126.056 148.168 126.484 146.812 127.078L145.313 127.836C144.941 128 144.766 128.121 144.788 128.187C144.996 129 145.674 129.637 146.844 130.11C147.391 130.263 147.927 130.373 148.463 130.439C148.988 130.505 149.327 130.56 149.47 130.593C152.018 130.714 154.381 131.439 156.546 132.768C157.553 133.383 158.395 134.097 159.073 134.899C159.751 135.701 160.189 136.536 160.407 137.382C160.539 137.887 160.604 138.448 160.615 139.063C161.02 141.666 160.659 144.105 159.521 146.368C158.362 148.423 156.699 150.147 154.523 151.521C152.663 152.817 150.29 153.827 147.413 154.553C145.138 155.124 142.776 155.431 140.336 155.464L140.325 155.442Z" stroke="#0D0D54" stroke-width="2" stroke-miterlimit="10"/>
<path d="M188.048 150.971C187.927 150.565 187.905 149.851 187.971 148.807C188.19 145.698 188.354 142.919 188.474 140.48C188.627 136.965 188.846 133.262 189.119 129.363L189.951 117.553C189.973 117.234 190.126 116.927 190.399 116.641C190.673 116.356 190.946 116.224 191.22 116.246L196.404 116.674C197.367 116.784 198.625 116.883 200.189 117.004C202.442 117.169 204.192 117.267 205.428 117.322L207.101 117.388C208.917 117.443 210.405 117.52 211.575 117.597C213.467 117.729 215.25 118.179 216.924 118.948C218.893 119.805 220.446 121.156 221.583 123.002C222.863 125.001 223.388 127.605 223.158 130.824C222.775 136.261 221.332 140.117 218.849 142.38C216.639 144.523 213.511 145.445 209.442 145.16L203.262 144.72C203.229 145.544 203.186 146.423 203.12 147.357C203.098 147.676 203.065 148.06 203.011 148.51C202.967 148.961 202.912 149.554 202.858 150.301C202.77 151.477 202.507 152.224 202.07 152.509C201.72 152.806 201.086 152.927 200.189 152.861C198.865 152.762 197.946 152.718 197.432 152.718C195.354 152.575 193.702 152.487 192.456 152.476L188.934 152.224C188.419 152.191 188.124 151.773 188.026 150.971H188.048ZM206.172 138.459C206.806 138.503 207.32 137.821 207.725 136.415C208.031 135.471 208.316 134.053 208.567 132.164C208.698 131.131 208.808 129.967 208.906 128.681L208.95 128.088C208.994 127.517 208.972 126.649 208.906 125.496C208.83 124.847 208.731 124.32 208.611 123.936C208.491 123.551 208.316 123.222 208.086 122.958C207.867 122.617 207.605 122.442 207.309 122.42C207.156 122.42 207.025 122.475 206.905 122.606C206.784 122.738 206.675 122.914 206.576 123.123C206.205 123.738 205.8 125.155 205.373 127.352C205.242 127.989 205.089 128.956 204.947 130.23C204.651 132.186 204.4 134.811 204.159 138.107C204.214 138.184 204.29 138.239 204.378 138.283L204.914 138.371L206.183 138.459H206.172Z" stroke="#0D0D54" stroke-width="2" stroke-miterlimit="10"/>
<path d="M102.415 196.485C100.664 195.968 99.2207 195.276 98.0941 194.397C97.7987 193.31 97.58 192.211 97.4269 191.124C97.2737 190.036 97.0987 188.465 96.869 186.444V186.312C96.9128 185.949 97.0768 185.675 97.3503 185.488C98.2909 186.191 99.1879 186.707 100.052 187.059C100.916 187.41 101.857 187.586 102.896 187.586H103.782L104.372 187.63C104.941 187.63 105.521 187.52 106.112 187.312C106.429 187.158 106.658 186.872 106.779 186.444L104.821 185.257C103.322 184.378 101.966 183.434 100.752 182.434C99.4941 181.313 98.5972 179.885 98.0503 178.161C97.7769 177.216 97.6456 176.194 97.6456 175.074C97.6456 172.349 98.3238 170.152 99.6801 168.482C100.861 166.999 102.458 165.934 104.482 165.296C106.232 164.78 108.146 164.527 110.246 164.527C111.482 164.527 113.177 164.692 115.343 165.033C115.562 165.099 115.868 165.154 116.262 165.22L117.367 165.494C118.209 165.681 118.821 165.769 119.215 165.769C119.237 165.769 119.281 165.813 119.346 165.901C119.412 165.989 119.467 166.065 119.511 166.131C119.609 166.34 119.707 166.45 119.806 166.45H119.882L119.959 167.406C119.959 167.856 119.992 168.35 120.068 168.856C120.145 169.614 120.178 170.427 120.178 171.306C120.178 172.064 120.145 172.613 120.068 172.942C119.948 173.547 119.718 173.986 119.401 174.261L115.967 173.711H115.081C114.238 173.711 113.287 173.821 112.204 174.03L110.99 174.349C110.695 174.414 110.541 174.469 110.541 174.535C110.541 175.26 110.924 175.941 111.69 176.579C112.062 176.82 112.434 177.029 112.795 177.194C113.167 177.359 113.396 177.479 113.495 177.534C115.321 178.172 116.896 179.281 118.22 180.852C118.832 181.577 119.314 182.357 119.664 183.17C120.003 183.994 120.178 184.774 120.178 185.532C120.178 185.982 120.123 186.477 120.036 186.982C119.861 189.256 119.161 191.222 117.925 192.892C116.721 194.375 115.201 195.474 113.385 196.166C111.81 196.858 109.918 197.21 107.698 197.21C105.947 197.21 104.186 196.968 102.415 196.485Z" stroke="#0D0D54" stroke-width="2" stroke-miterlimit="10"/>
<path d="M123.951 195.254C123.929 195.166 123.918 195.012 123.918 194.804C123.918 194.496 123.962 194.046 124.072 193.441C124.115 193.046 124.159 192.738 124.203 192.508C124.236 192.277 124.269 192.101 124.29 191.98C125.034 187.707 125.756 183.95 126.467 180.709L129.048 166.34C129.048 166.274 129.081 166.186 129.158 166.065C129.234 165.945 129.322 165.868 129.42 165.835H129.606C129.606 165.835 129.639 165.879 129.716 165.879C130.011 165.879 130.339 165.835 130.711 165.747C131.083 165.659 131.411 165.615 131.706 165.615C132.253 165.615 132.756 165.659 133.216 165.747C133.434 165.747 133.686 165.758 133.96 165.791C134.233 165.824 134.517 165.835 134.813 165.835C134.911 165.835 135.02 165.802 135.141 165.747H136.65L137.536 165.703C137.711 165.67 137.919 165.659 138.16 165.659C138.357 165.659 138.455 165.648 138.455 165.615H141.857C143.235 165.615 144.143 165.648 144.591 165.703C144.668 165.703 144.766 165.703 144.908 165.725C145.04 165.736 145.127 165.78 145.149 165.835C145.324 165.835 145.488 165.824 145.663 165.791C145.838 165.758 145.991 165.747 146.144 165.747C146.483 165.659 146.823 165.615 147.14 165.615C147.282 165.615 147.435 165.659 147.588 165.747C147.741 165.835 147.894 165.879 148.069 165.879L148.255 165.835H148.365C148.441 165.901 148.518 165.978 148.605 166.087C148.693 166.197 148.737 166.274 148.737 166.34L151.318 180.709C152.106 184.258 152.816 188.015 153.462 191.98C153.462 192.167 153.506 192.354 153.615 192.574C153.637 192.782 153.681 193.079 153.724 193.441C153.768 193.804 153.801 194.112 153.801 194.353C153.823 194.474 153.834 194.639 153.834 194.859C153.834 195.287 153.757 195.628 153.615 195.902C153.517 196.089 153.363 196.177 153.167 196.177H152.685C152.313 196.177 152.029 196.166 151.832 196.133H149.207C149.01 196.133 148.912 196.122 148.912 196.089H146.582V196.001C146.483 195.935 146.363 195.913 146.21 195.913C146.188 195.946 146.166 195.979 146.133 196.001C146.133 196.067 146.112 196.089 146.057 196.089H145.652C145.532 196.023 145.28 196.001 144.908 196.001C144.165 195.935 143.585 195.913 143.169 195.913C143.027 195.639 142.863 195.1 142.71 194.276C142.546 193.452 142.382 192.552 142.207 191.552C142.152 191.069 142.108 190.728 142.054 190.552C141.539 190.673 140.861 190.739 140.019 190.739H137.799L137.536 192.189C137.219 194.188 136.957 195.43 136.76 195.913C136.661 195.913 136.541 195.946 136.388 196.001C136.333 196.034 136.278 196.067 136.202 196.089H136.06C135.906 196.089 135.797 196.056 135.731 196.001C135.677 195.935 135.622 195.913 135.546 195.913L133.883 196.001H132.734C132.636 196.067 132.516 196.089 132.363 196.089H128.48C128.206 196.122 127.659 196.133 126.817 196.133H125.855C125.658 196.166 125.373 196.177 125.001 196.177H124.553C124.236 196.177 124.006 195.869 123.886 195.265L123.951 195.254ZM141.43 182.796C141.354 182.368 141.233 181.566 141.058 180.391C141.004 180.083 140.883 179.27 140.686 177.941L140.391 175.755C140.314 175.15 140.249 174.612 140.172 174.162L140.139 173.569C140.063 173.415 140.03 173.283 140.03 173.162L139.997 172.887C139.975 172.953 139.964 173.041 139.964 173.162C139.964 173.283 139.943 173.36 139.888 173.393V173.58L139.811 174.173C139.789 174.381 139.757 174.623 139.724 174.876C139.691 175.129 139.647 175.414 139.593 175.722L139.407 176.996C139.133 178.908 138.98 180.017 138.925 180.314C138.903 180.643 138.838 181.149 138.739 181.819C138.685 182.027 138.641 182.346 138.586 182.774L138.291 184.862H140.172L140.435 184.774H140.511C140.807 184.774 141.025 184.807 141.179 184.862C141.277 184.862 141.364 184.884 141.452 184.928C141.539 184.972 141.616 185.016 141.693 185.038L141.43 182.807V182.796Z" stroke="#0D0D54" stroke-width="2" stroke-miterlimit="10"/>
<path d="M164.629 195.99C164.258 195.902 163.929 195.858 163.634 195.858C163.558 195.858 163.525 195.869 163.525 195.902H163.339C163.087 195.715 162.967 195.551 162.967 195.408L160.386 180.995C159.675 177.842 158.942 174.096 158.209 169.768C158.187 169.68 158.165 169.526 158.154 169.317C158.143 169.108 158.11 168.911 158.067 168.724C157.946 168.12 157.881 167.57 157.881 167.087C157.881 166.725 157.914 166.406 157.99 166.131C158.034 165.736 158.22 165.538 158.548 165.538H159.839C160.036 165.604 160.353 165.626 160.801 165.626L162.464 165.67H166.194C166.194 165.67 166.27 165.736 166.347 165.758C166.423 165.791 166.489 165.824 166.565 165.846C166.609 165.846 166.653 165.835 166.697 165.802C166.73 165.769 166.762 165.758 166.784 165.758C166.883 165.692 166.981 165.67 167.08 165.67H167.233L167.605 165.714C167.922 165.747 168.6 165.758 169.639 165.758C169.912 165.824 170.273 165.846 170.744 165.846C170.897 166.208 171.138 167.318 171.488 169.163L171.892 171.756C171.991 172.393 172.166 173.349 172.406 174.623C172.406 174.656 172.406 174.733 172.428 174.854C172.439 174.975 172.461 175.129 172.483 175.304C172.527 175.546 172.57 175.81 172.614 176.095C172.658 176.381 172.702 176.699 172.778 177.029C172.8 177.238 172.899 177.952 173.074 179.171L173.697 182.939L173.806 183.62V183.807C173.806 183.807 173.883 183.917 173.883 184.038L173.916 184.312L173.949 184.038C173.949 183.851 173.981 183.719 174.058 183.631C174.058 183.598 174.058 183.532 174.08 183.423C174.091 183.313 174.113 183.159 174.134 182.95C174.331 181.742 174.528 180.478 174.725 179.182L175.097 177.04C175.141 176.677 175.195 176.359 175.25 176.084C175.294 175.81 175.338 175.557 175.36 175.315L175.469 174.634C175.589 173.997 175.753 173.041 175.95 171.767L176.355 169.405C176.399 169.075 176.53 168.317 176.727 167.131C176.847 166.648 176.989 166.219 177.131 165.857C177.482 165.857 177.744 165.846 177.941 165.813L178.86 165.769L179.603 165.725L179.899 165.681H180.008C180.008 165.681 180.085 165.714 180.085 165.769C180.107 165.769 180.128 165.802 180.161 165.857C180.26 165.857 180.336 165.846 180.402 165.813C180.468 165.78 180.511 165.769 180.533 165.769V165.681H183.158C183.454 165.681 183.705 165.67 183.902 165.637H184.821C185.291 165.637 185.608 165.604 185.783 165.549H187.118C187.566 165.549 187.785 165.978 187.785 166.823L187.752 167.373C187.752 167.68 187.698 168.131 187.599 168.735C187.523 169.042 187.479 169.273 187.468 169.438C187.457 169.603 187.435 169.713 187.413 169.779C186.768 173.777 186.057 177.523 185.269 181.006L182.688 195.419C182.688 195.507 182.568 195.672 182.316 195.913H182.207L182.021 195.869C181.846 195.869 181.693 195.913 181.539 196.001C181.386 196.089 181.244 196.133 181.091 196.133C180.774 196.133 180.435 196.089 180.096 196.001C179.702 195.935 179.374 195.913 179.1 195.913C176.049 196.067 171.564 196.144 165.658 196.144C165.362 196.144 165.034 196.1 164.662 196.012L164.629 195.99Z" stroke="#0D0D54" stroke-width="2" stroke-miterlimit="10"/>
<path d="M198.537 195.99C198.165 195.902 197.837 195.858 197.542 195.858C197.465 195.858 197.432 195.869 197.432 195.902H197.246C196.995 195.715 196.874 195.551 196.874 195.408L194.293 180.995C193.582 177.842 192.849 174.096 192.116 169.768C192.095 169.68 192.073 169.526 192.062 169.317C192.051 169.108 192.018 168.911 191.974 168.724C191.854 168.12 191.788 167.57 191.788 167.087C191.788 166.725 191.821 166.406 191.898 166.131C191.941 165.736 192.127 165.538 192.456 165.538H193.746C193.943 165.604 194.26 165.626 194.709 165.626L196.371 165.67H200.101C200.101 165.67 200.178 165.736 200.254 165.758C200.331 165.791 200.396 165.824 200.473 165.846C200.517 165.846 200.561 165.835 200.604 165.802C200.637 165.769 200.67 165.758 200.692 165.758C200.79 165.692 200.889 165.67 200.987 165.67H201.14L201.512 165.714C201.829 165.747 202.507 165.758 203.547 165.758C203.82 165.824 204.181 165.846 204.651 165.846C204.804 166.208 205.045 167.318 205.395 169.163L205.8 171.756C205.898 172.393 206.073 173.349 206.314 174.623C206.314 174.656 206.314 174.733 206.336 174.854C206.347 174.975 206.369 175.129 206.39 175.304C206.434 175.546 206.478 175.81 206.522 176.095C206.565 176.381 206.609 176.699 206.686 177.029C206.708 177.238 206.806 177.952 206.981 179.171L207.605 182.939L207.714 183.62V183.807C207.714 183.807 207.791 183.917 207.791 184.038L207.823 184.312L207.856 184.038C207.856 183.851 207.889 183.719 207.966 183.631C207.966 183.598 207.966 183.532 207.987 183.423C207.998 183.313 208.02 183.159 208.042 182.95C208.239 181.742 208.436 180.478 208.633 179.182L209.005 177.04C209.048 176.677 209.103 176.359 209.158 176.084C209.202 175.81 209.245 175.557 209.267 175.315L209.377 174.634C209.497 173.997 209.661 173.041 209.858 171.767L210.262 169.405C210.306 169.075 210.437 168.317 210.634 167.131C210.755 166.648 210.897 166.219 211.039 165.857C211.389 165.857 211.652 165.846 211.848 165.813L212.767 165.769L213.511 165.725L213.806 165.681H213.916C213.916 165.681 213.992 165.714 213.992 165.769C214.014 165.769 214.036 165.802 214.069 165.857C214.167 165.857 214.244 165.846 214.31 165.813C214.375 165.78 214.419 165.769 214.441 165.769V165.681H217.066C217.361 165.681 217.613 165.67 217.81 165.637H218.728C219.199 165.637 219.516 165.604 219.691 165.549H221.025C221.474 165.549 221.693 165.978 221.693 166.823L221.66 167.373C221.66 167.68 221.605 168.131 221.507 168.735C221.43 169.042 221.386 169.273 221.375 169.438C221.364 169.603 221.343 169.713 221.321 169.779C220.675 173.777 219.964 177.523 219.177 181.006L216.596 195.419C216.596 195.507 216.475 195.672 216.224 195.913H216.114L215.928 195.869C215.753 195.869 215.6 195.913 215.447 196.001C215.294 196.089 215.152 196.133 214.999 196.133C214.681 196.133 214.342 196.089 214.003 196.001C213.609 195.935 213.281 195.913 213.008 195.913C209.956 196.067 205.472 196.144 199.565 196.144C199.27 196.144 198.942 196.1 198.57 196.012L198.537 195.99Z" stroke="#0D0D54" stroke-width="2" stroke-miterlimit="10"/>
<path d="M240.582 200.165C240.506 200.165 240.462 200.176 240.44 200.209L240.331 200.253C240.254 200.253 240.222 200.22 240.222 200.165C240.123 200.099 240.057 200.011 240.036 199.89C239.171 199.703 238.614 199.56 238.373 199.44L237.082 198.989H236.896C236.776 198.989 236.678 198.956 236.601 198.901C236.382 198.901 236.196 198.868 236.043 198.813C235.846 198.781 235.529 198.682 235.081 198.495C234.632 198.308 234.315 198.176 234.118 198.088C233.724 197.935 233.156 197.682 232.423 197.319C232.073 197.133 231.821 197.012 231.646 196.957L230.793 196.32C230.596 196.133 230.498 195.957 230.498 195.77C230.498 195.199 230.607 194.584 230.826 193.947C230.902 193.738 231.001 193.474 231.143 193.178C231.274 192.87 231.406 192.53 231.526 192.134C231.57 191.947 231.712 191.684 231.931 191.321C232.521 190.113 232.838 189.443 232.893 189.322C232.992 188.992 233.035 188.685 233.035 188.41C233.035 187.96 232.838 187.487 232.445 187.004C232.073 186.554 231.887 186.114 231.887 185.686C231.766 185.686 231.701 185.697 231.701 185.73H231.591C231.537 185.664 231.515 185.609 231.515 185.543C230.727 184.334 229.929 182.862 229.109 181.127C228.069 179.127 227.238 177.304 226.593 175.667C226.396 175.304 226.166 174.645 225.893 173.711C225.576 172.898 225.302 172.064 225.083 171.207C224.81 170.273 224.679 169.658 224.679 169.383C224.679 169.075 224.952 168.691 225.488 168.197C225.707 168.01 225.969 167.834 226.265 167.647C226.56 167.461 226.779 167.329 226.932 167.241C227.052 167.208 227.577 167.043 228.485 166.747L228.999 166.516C229.098 166.428 229.207 166.384 229.327 166.384C229.48 166.384 229.71 166.318 230.027 166.197C230.738 166.011 231.165 165.89 231.285 165.835L232.62 165.472C233.363 165.165 233.79 165 233.91 164.978L233.987 164.934H234.173C234.687 164.934 235.037 165.088 235.212 165.384C235.354 165.571 235.606 165.989 235.956 166.659C235.999 166.845 236.098 167.054 236.229 167.296C236.36 167.537 236.459 167.691 236.503 167.746L236.798 168.241L237.06 168.603C237.159 168.757 237.257 168.933 237.356 169.152C237.454 169.372 237.564 169.592 237.684 169.833C238.329 171.229 238.821 172.217 239.161 172.789C239.379 173.184 239.565 173.382 239.718 173.382C239.795 173.382 239.915 173.217 240.09 172.887C240.309 172.459 240.714 171.492 241.304 169.976C241.622 169.01 242.004 167.9 242.453 166.659C242.672 166.109 242.792 165.78 242.825 165.659C242.923 165.11 243.033 164.769 243.153 164.615C243.273 164.374 243.503 164.253 243.82 164.253C244.608 164.253 245.647 164.451 246.926 164.846C248.184 165.296 249.387 165.89 250.547 166.615C251.728 167.406 252.527 168.131 252.953 168.801C252.953 169.625 252.789 170.372 252.472 171.075L249.07 180.303L245.745 189.575L245.603 189.619C245.603 189.619 245.537 189.651 245.494 189.706C243.864 193.617 242.376 197.133 241.02 200.253C240.965 200.373 240.823 200.439 240.572 200.439V200.165H240.582Z" stroke="#0D0D54" stroke-width="2" stroke-miterlimit="10"/>
</svg>
