<svg width="123" height="123" viewBox="0 0 123 123" fill="none" xmlns="http://www.w3.org/2000/svg">
<circle cx="61.981" cy="61.4702" r="56" fill="#FCECEA"/>
<circle cx="61.981" cy="61.4702" r="56" stroke="#050540" stroke-width="10"/>
<path d="M117.981 61.4702C117.981 92.3982 92.9089 117.47 61.981 117.47C31.053 117.47 5.98096 92.3982 5.98096 61.4702C5.98096 30.5423 31.053 5.47021 61.981 5.47021C65.8677 5.47021 69.662 5.86619 73.3257 6.61999" stroke="#E35650" stroke-width="10" stroke-linecap="square"/>
<path d="M41.877 48.2754H42.8145V53.1191H42.4629C41.0957 53.1191 39.8457 53.3145 38.7129 53.7051C37.5931 54.0957 36.623 54.6751 35.8027 55.4434C34.9824 56.1986 34.3509 57.1361 33.9082 58.2559C33.4785 59.3626 33.2637 60.6387 33.2637 62.084V66.9277C33.2637 67.9043 33.3483 68.7572 33.5176 69.4863C33.6999 70.2025 33.9603 70.8014 34.2988 71.2832C34.6504 71.752 35.0736 72.11 35.5684 72.3574C36.0632 72.5918 36.623 72.709 37.248 72.709C37.8079 72.709 38.3223 72.5853 38.791 72.3379C39.2598 72.0905 39.6634 71.7389 40.002 71.2832C40.3405 70.8275 40.6009 70.3001 40.7832 69.7012C40.9655 69.0892 41.0566 68.4251 41.0566 67.709C41.0566 66.9538 40.959 66.2702 40.7637 65.6582C40.5814 65.0332 40.3145 64.4993 39.9629 64.0566C39.6243 63.6139 39.2077 63.2754 38.7129 63.041C38.2181 62.7936 37.6712 62.6699 37.0723 62.6699C36.2129 62.6699 35.4707 62.8652 34.8457 63.2559C34.2207 63.6465 33.7389 64.1478 33.4004 64.7598C33.0618 65.3717 32.8861 65.9967 32.873 66.6348L31.252 65.2871C31.252 64.4017 31.4277 63.5293 31.7793 62.6699C32.1439 61.7975 32.6582 61.0098 33.3223 60.3066C33.9863 59.5905 34.8001 59.0241 35.7637 58.6074C36.7402 58.1777 37.8535 57.9629 39.1035 57.9629C40.4186 57.9629 41.5775 58.2168 42.5801 58.7246C43.5827 59.2194 44.4225 59.9095 45.0996 60.7949C45.7897 61.6803 46.304 62.7155 46.6426 63.9004C46.9941 65.0723 47.1699 66.3288 47.1699 67.6699C47.1699 69.0501 46.929 70.3392 46.4473 71.5371C45.9785 72.722 45.3145 73.7572 44.4551 74.6426C43.5957 75.528 42.5671 76.2181 41.3691 76.7129C40.1842 77.2077 38.8626 77.4551 37.4043 77.4551C35.8939 77.4551 34.5137 77.1882 33.2637 76.6543C32.0267 76.1204 30.946 75.3587 30.0215 74.3691C29.11 73.3665 28.4004 72.1686 27.8926 70.7754C27.3978 69.3822 27.1504 67.8197 27.1504 66.0879V63.8027C27.1504 61.4329 27.515 59.2975 28.2441 57.3965C28.9863 55.4954 30.015 53.8678 31.3301 52.5137C32.6582 51.1465 34.2207 50.0983 36.0176 49.3691C37.8145 48.64 39.7676 48.2754 41.877 48.2754ZM56.1738 60.248H59.2793C60.1647 60.248 60.8939 60.0918 61.4668 59.7793C62.0527 59.4668 62.4824 59.0241 62.7559 58.4512C63.0423 57.8783 63.1855 57.2077 63.1855 56.4395C63.1855 55.7754 63.0553 55.1829 62.7949 54.6621C62.5345 54.1413 62.1374 53.7311 61.6035 53.4316C61.0827 53.1191 60.4056 52.9629 59.5723 52.9629C58.9733 52.9629 58.4004 53.0866 57.8535 53.334C57.3197 53.5684 56.8835 53.9134 56.5449 54.3691C56.2064 54.8118 56.0371 55.3457 56.0371 55.9707H49.9238C49.9238 54.3822 50.3535 53.0085 51.2129 51.8496C52.0853 50.6908 53.2376 49.7988 54.6699 49.1738C56.1152 48.5358 57.6908 48.2168 59.3965 48.2168C61.3626 48.2168 63.0879 48.5293 64.5723 49.1543C66.0697 49.7663 67.2285 50.6777 68.0488 51.8887C68.8822 53.0866 69.2988 54.571 69.2988 56.3418C69.2988 57.2663 69.0775 58.1582 68.6348 59.0176C68.2051 59.8639 67.5866 60.6191 66.7793 61.2832C65.985 61.9342 65.0345 62.4551 63.9277 62.8457C62.834 63.2233 61.6165 63.4121 60.2754 63.4121H56.1738V60.248ZM56.1738 64.8379V61.7324H60.2754C61.7598 61.7324 63.0879 61.9017 64.2598 62.2402C65.4316 62.5788 66.4277 63.0671 67.248 63.7051C68.0684 64.3431 68.6934 65.1178 69.123 66.0293C69.5527 66.9408 69.7676 67.9564 69.7676 69.0762C69.7676 70.4043 69.5072 71.5892 68.9863 72.6309C68.4655 73.6725 67.7363 74.5514 66.7988 75.2676C65.8613 75.9837 64.7611 76.5306 63.498 76.9082C62.235 77.2728 60.8678 77.4551 59.3965 77.4551C58.2116 77.4551 57.0332 77.2923 55.8613 76.9668C54.6895 76.6413 53.6283 76.1465 52.6777 75.4824C51.7272 74.8053 50.9655 73.9525 50.3926 72.9238C49.8197 71.8822 49.5332 70.6452 49.5332 69.2129H55.6465C55.6465 69.877 55.8158 70.4759 56.1543 71.0098C56.5059 71.5306 56.9811 71.9473 57.5801 72.2598C58.1921 72.5592 58.8561 72.709 59.5723 72.709C60.4316 72.709 61.1608 72.5527 61.7598 72.2402C62.3717 71.9147 62.834 71.472 63.1465 70.9121C63.472 70.3522 63.6348 69.7077 63.6348 68.9785C63.6348 67.9889 63.459 67.1947 63.1074 66.5957C62.7689 65.9837 62.2741 65.541 61.623 65.2676C60.972 64.9811 60.1908 64.8379 59.2793 64.8379H56.1738ZM73.3418 55.5996V54.0957C73.3418 53.015 73.5762 52.0319 74.0449 51.1465C74.5137 50.2611 75.2103 49.5514 76.1348 49.0176C77.0723 48.4837 78.2181 48.2168 79.5723 48.2168C80.9785 48.2168 82.1439 48.4837 83.0684 49.0176C83.9928 49.5514 84.6829 50.2611 85.1387 51.1465C85.6074 52.0319 85.8418 53.015 85.8418 54.0957V55.5996C85.8418 56.6543 85.6074 57.6243 85.1387 58.5098C84.6829 59.3952 83.9928 60.1048 83.0684 60.6387C82.1569 61.1725 81.0111 61.4395 79.6309 61.4395C78.2507 61.4395 77.0918 61.1725 76.1543 60.6387C75.2298 60.1048 74.5267 59.3952 74.0449 58.5098C73.5762 57.6243 73.3418 56.6543 73.3418 55.5996ZM77.3262 54.0957V55.5996C77.3262 56.0293 77.4108 56.4329 77.5801 56.8105C77.7493 57.1882 78.0033 57.4941 78.3418 57.7285C78.6803 57.9629 79.1035 58.0801 79.6113 58.0801C80.1322 58.0801 80.5553 57.9629 80.8809 57.7285C81.2064 57.4941 81.4473 57.1882 81.6035 56.8105C81.7728 56.4329 81.8574 56.0293 81.8574 55.5996V54.0957C81.8574 53.653 81.7728 53.2428 81.6035 52.8652C81.4473 52.4746 81.1999 52.1621 80.8613 51.9277C80.5228 51.6934 80.0931 51.5762 79.5723 51.5762C79.0775 51.5762 78.6608 51.6934 78.3223 51.9277C77.9967 52.1621 77.7493 52.4746 77.5801 52.8652C77.4108 53.2428 77.3262 53.653 77.3262 54.0957ZM86.8965 71.5957V70.0918C86.8965 69.0241 87.1309 68.0475 87.5996 67.1621C88.0814 66.2767 88.7845 65.5671 89.709 65.0332C90.6465 64.4993 91.7988 64.2324 93.166 64.2324C94.5592 64.2324 95.7181 64.4993 96.6426 65.0332C97.5671 65.5671 98.2572 66.2767 98.7129 67.1621C99.1816 68.0475 99.416 69.0241 99.416 70.0918V71.5957C99.416 72.6634 99.1816 73.64 98.7129 74.5254C98.2572 75.4108 97.5671 76.1204 96.6426 76.6543C95.7311 77.1882 94.5918 77.4551 93.2246 77.4551C91.8314 77.4551 90.666 77.1882 89.7285 76.6543C88.791 76.1204 88.0814 75.4108 87.5996 74.5254C87.1309 73.64 86.8965 72.6634 86.8965 71.5957ZM90.9004 70.0918V71.5957C90.9004 72.0384 90.998 72.4486 91.1934 72.8262C91.3887 73.2038 91.6621 73.5098 92.0137 73.7441C92.3652 73.9785 92.7624 74.0957 93.2051 74.0957C93.8171 74.0957 94.2793 73.9785 94.5918 73.7441C94.9173 73.5098 95.1387 73.2038 95.2559 72.8262C95.373 72.4486 95.4316 72.0384 95.4316 71.5957V70.0918C95.4316 69.6491 95.347 69.2389 95.1777 68.8613C95.0215 68.4837 94.7741 68.1777 94.4355 67.9434C94.097 67.709 93.6738 67.5918 93.166 67.5918C92.6582 67.5918 92.235 67.709 91.8965 67.9434C91.5579 68.1777 91.304 68.4837 91.1348 68.8613C90.9785 69.2389 90.9004 69.6491 90.9004 70.0918ZM94.6895 52.709L80.8027 74.9355L77.8926 73.4316L91.7793 51.2051L94.6895 52.709Z" fill="#050540"/>
</svg>
