<svg width="390" height="160" viewBox="0 0 390 160" fill="none" xmlns="http://www.w3.org/2000/svg">
<rect x="-0.013916" y="11" width="390" height="145.454" fill="#050540"/>
<path d="M4.26556 10.3124L16.5937 10.3358C18.6718 10.3671 20.5703 10.7499 22.289 11.4843C24.0234 12.203 25.3749 13.2968 26.3437 14.7655C27.3124 16.2343 27.7187 18.1171 27.5624 20.4139C27.4218 22.2733 26.9843 23.8514 26.2499 25.1483C25.5312 26.4296 24.5624 27.5233 23.3437 28.4296C22.1249 29.3202 20.7031 30.1014 19.0781 30.7733L16.4296 32.1093H5.20306L6.21088 26.1796L13.8984 26.2264C14.9765 26.2108 15.9531 25.9999 16.8281 25.5936C17.7031 25.1874 18.4218 24.6093 18.9843 23.8593C19.5468 23.0936 19.8984 22.1561 20.039 21.0468C20.1796 20.1249 20.1328 19.3124 19.8984 18.6093C19.6796 17.9061 19.2656 17.3514 18.6562 16.9452C18.0624 16.5389 17.2968 16.3124 16.3593 16.2655L10.6874 16.2421L5.789 44.4374H-1.64069L4.26556 10.3124ZM16.8515 44.4374L12.0468 29.2733L19.5703 29.2499L24.7968 44.0624L24.7734 44.4374H16.8515ZM40.3124 44.9061C38.5624 44.8749 36.9765 44.5468 35.5546 43.9218C34.1484 43.2968 32.9609 42.4374 31.9921 41.3436C31.0234 40.2343 30.3124 38.9452 29.8593 37.4764C29.4062 36.0077 29.2421 34.4061 29.3671 32.6718L29.4609 31.7577C29.6484 29.9452 30.0781 28.2421 30.7499 26.6483C31.4374 25.0546 32.3515 23.6483 33.4921 22.4296C34.6328 21.1952 35.9765 20.2421 37.5234 19.5702C39.0859 18.8827 40.8281 18.5624 42.7499 18.6093C44.5156 18.6405 46.0312 18.9999 47.2968 19.6874C48.5781 20.3593 49.6093 21.2733 50.3906 22.4296C51.1874 23.5858 51.7343 24.8983 52.0312 26.3671C52.3281 27.8358 52.3906 29.3905 52.2187 31.0311L51.7968 34.0311H31.9453L32.6953 29.3202L45.3749 29.3436L45.5156 28.7108C45.6249 27.9139 45.5859 27.1874 45.3984 26.5311C45.2109 25.8593 44.8593 25.3202 44.3437 24.9139C43.8281 24.5077 43.1328 24.2889 42.2578 24.2577C41.2421 24.2421 40.3906 24.4608 39.7031 24.9139C39.0156 25.3671 38.4609 25.9764 38.039 26.7421C37.6171 27.4921 37.289 28.3124 37.0546 29.203C36.8359 30.078 36.6718 30.9296 36.5624 31.7577L36.4687 32.6483C36.4062 33.4608 36.4296 34.2499 36.539 35.0155C36.664 35.7811 36.8984 36.4764 37.2421 37.1014C37.6015 37.7108 38.0859 38.2108 38.6953 38.6014C39.3203 38.9764 40.0937 39.1796 41.0156 39.2108C42.2187 39.2421 43.3359 39.0077 44.3671 38.5077C45.414 38.0077 46.3515 37.3358 47.1796 36.4921L50.2734 40.4061C49.5546 41.4686 48.6484 42.3358 47.5546 43.0077C46.4609 43.6639 45.2812 44.1483 44.0156 44.4608C42.7656 44.7733 41.5312 44.9218 40.3124 44.9061ZM70.289 19.078L69.3749 24.2108H54.7734L55.664 19.078H70.289ZM60.0937 12.7968H67.2421L63.164 36.5389C63.1015 37.0858 63.1015 37.5389 63.164 37.8983C63.2421 38.2577 63.414 38.5389 63.6796 38.7421C63.9609 38.9296 64.3906 39.0389 64.9687 39.0702C65.3124 39.0858 65.6484 39.078 65.9765 39.0468C66.3046 38.9999 66.6328 38.9608 66.9609 38.9296L66.4453 44.2968C65.8046 44.4999 65.1484 44.6483 64.4765 44.7421C63.8203 44.8358 63.1484 44.8827 62.4609 44.8827C60.914 44.8514 59.6328 44.5311 58.6171 43.9218C57.6015 43.2968 56.8671 42.4218 56.414 41.2968C55.9765 40.1561 55.8281 38.828 55.9687 37.3124L60.0937 12.7968ZM82.4765 8.43738L76.2187 44.4374H69.0468L75.3046 8.43738H82.4765ZM77.6718 30.8671L75.9843 30.9374C76.1406 29.4999 76.4609 28.0546 76.9453 26.6014C77.4453 25.1327 78.1249 23.7889 78.9843 22.5702C79.8437 21.3358 80.8984 20.3514 82.1484 19.6171C83.3984 18.8827 84.8593 18.5389 86.5312 18.5858C87.9843 18.6171 89.1874 18.9139 90.1406 19.4764C91.0937 20.0233 91.8359 20.7655 92.3671 21.703C92.914 22.6249 93.2734 23.6796 93.4453 24.8671C93.6171 26.0389 93.6328 27.2655 93.4921 28.5468L90.8437 44.4374H83.6484L86.3437 28.4764C86.4218 27.6796 86.3984 26.9686 86.2734 26.3436C86.164 25.7186 85.8828 25.2264 85.4296 24.8671C84.9921 24.4921 84.3359 24.2889 83.4609 24.2577C82.4765 24.2421 81.6406 24.4218 80.9531 24.7968C80.2812 25.1561 79.7265 25.6561 79.289 26.2968C78.8515 26.9374 78.5078 27.6561 78.2578 28.453C78.0078 29.2499 77.8124 30.0546 77.6718 30.8671ZM107.367 19.078L102.984 44.4374H95.8124L100.219 19.078H107.367ZM100.922 12.6327C100.891 11.4921 101.266 10.5858 102.047 9.91394C102.844 9.22644 103.789 8.87488 104.883 8.85925C105.93 8.84363 106.852 9.15613 107.648 9.79675C108.445 10.4218 108.852 11.2811 108.867 12.3749C108.883 13.5155 108.492 14.4296 107.695 15.1171C106.914 15.7889 105.984 16.1327 104.906 16.1483C103.859 16.1639 102.937 15.8593 102.141 15.2343C101.359 14.6093 100.953 13.7421 100.922 12.6327ZM118.406 24.8905L114.984 44.4374H107.836L112.242 19.078H118.922L118.406 24.8905ZM116.461 30.8671L114.844 30.9374C115 29.4218 115.328 27.9218 115.828 26.4374C116.328 24.953 117.016 23.6171 117.891 22.4296C118.781 21.2264 119.875 20.2811 121.172 19.5936C122.469 18.8905 123.992 18.5546 125.742 18.5858C127.148 18.6327 128.305 18.9374 129.211 19.4999C130.133 20.0468 130.836 20.7811 131.32 21.703C131.82 22.6093 132.141 23.6405 132.281 24.7968C132.422 25.9374 132.422 27.1249 132.281 28.3593L129.609 44.4374H122.414L125.133 28.2889C125.211 27.5233 125.187 26.8358 125.062 26.2264C124.937 25.6171 124.648 25.1483 124.195 24.8202C123.758 24.4764 123.102 24.2889 122.227 24.2577C121.289 24.2421 120.484 24.4296 119.812 24.8202C119.141 25.1952 118.578 25.7108 118.125 26.3671C117.672 27.0077 117.312 27.7264 117.047 28.5233C116.797 29.3046 116.602 30.0858 116.461 30.8671ZM147.633 8.41394L141.375 44.4374H134.227L140.484 8.41394H147.633ZM161.672 19.078L148.711 31.8749L142.008 37.7577L139.828 32.4139L145.336 26.4843L152.578 19.078H161.672ZM149.648 44.4374L144.633 32.5311L150.164 28.6405L157.523 44.4374H149.648ZM182.695 10.3124L186.539 25.453L195.656 10.3124H204.047L189.258 32.4608L187.195 44.4374H179.625L181.852 31.7343L174.867 10.3358L182.695 10.3124ZM199.898 32.1561L199.945 31.6639C200.148 29.8514 200.594 28.1483 201.281 26.5546C201.969 24.9608 202.883 23.5624 204.023 22.3593C205.164 21.1561 206.508 20.2186 208.055 19.5468C209.602 18.8749 211.336 18.5624 213.258 18.6093C215.102 18.6405 216.695 19.0077 218.039 19.7108C219.398 20.3983 220.508 21.3358 221.367 22.5233C222.227 23.7108 222.836 25.0702 223.195 26.6014C223.555 28.1327 223.656 29.7577 223.5 31.4764L223.453 31.9921C223.25 33.7889 222.797 35.4764 222.094 37.0546C221.391 38.6327 220.469 40.0155 219.328 41.203C218.187 42.3905 216.844 43.3202 215.297 43.9921C213.75 44.6483 212.023 44.953 210.117 44.9061C208.289 44.8749 206.695 44.5155 205.336 43.828C203.992 43.1405 202.891 42.2108 202.031 41.0389C201.172 39.8671 200.562 38.5233 200.203 37.0077C199.844 35.4921 199.742 33.8749 199.898 32.1561ZM207.094 31.6639L207.047 32.1561C207 32.8593 206.977 33.6171 206.977 34.4296C206.992 35.2264 207.102 35.9921 207.305 36.7264C207.523 37.4608 207.883 38.0624 208.383 38.5311C208.898 38.9843 209.617 39.2264 210.539 39.2577C211.539 39.2889 212.383 39.0858 213.07 38.6483C213.758 38.2108 214.32 37.6249 214.758 36.8905C215.211 36.1405 215.555 35.3358 215.789 34.4764C216.039 33.6171 216.203 32.7811 216.281 31.9686L216.328 31.4764C216.391 30.7889 216.414 30.0389 216.398 29.2264C216.398 28.3983 216.289 27.6171 216.07 26.8827C215.867 26.1327 215.508 25.5233 214.992 25.0546C214.477 24.5702 213.758 24.3124 212.836 24.2811C211.836 24.2499 210.984 24.4608 210.281 24.9139C209.594 25.3671 209.031 25.9686 208.594 26.7186C208.156 27.4686 207.82 28.2811 207.586 29.1561C207.352 30.0155 207.187 30.8514 207.094 31.6639ZM240.516 37.9452L243.797 19.078H250.969L246.562 44.4374H239.883L240.516 37.9452ZM241.992 33.1171L243.961 33.0702C243.789 34.5233 243.461 35.9686 242.977 37.4061C242.508 38.828 241.852 40.1093 241.008 41.2499C240.18 42.3905 239.141 43.2968 237.891 43.9686C236.656 44.6405 235.195 44.9608 233.508 44.9296C232.117 44.8983 230.945 44.6327 229.992 44.1327C229.039 43.6327 228.273 42.9452 227.695 42.0702C227.133 41.1952 226.75 40.1952 226.547 39.0702C226.359 37.9452 226.328 36.7499 226.453 35.4843L229.195 19.078H236.344L233.555 35.578C233.508 36.0624 233.508 36.5233 233.555 36.9608C233.617 37.3983 233.742 37.7811 233.93 38.1093C234.117 38.4374 234.383 38.703 234.727 38.9061C235.086 39.0936 235.547 39.1952 236.109 39.2108C237.375 39.2733 238.406 39.0233 239.203 38.4608C240.016 37.8827 240.641 37.1249 241.078 36.1874C241.531 35.2343 241.836 34.2108 241.992 33.1171ZM261.633 25.3827L258.328 44.4374H251.18L255.586 19.078H262.266L261.633 25.3827ZM269.906 18.8671L269.016 25.6874C268.609 25.6249 268.211 25.5702 267.82 25.5233C267.43 25.4764 267.031 25.453 266.625 25.453C265.734 25.4374 264.93 25.5468 264.211 25.7811C263.508 25.9999 262.891 26.3358 262.359 26.7889C261.844 27.2421 261.414 27.8046 261.07 28.4764C260.727 29.1327 260.469 29.8827 260.297 30.7264L258.984 30.0702C259.156 28.8671 259.422 27.6014 259.781 26.2733C260.141 24.9296 260.641 23.6718 261.281 22.4999C261.937 21.3124 262.773 20.3593 263.789 19.6405C264.82 18.9061 266.086 18.5389 267.586 18.5389C267.977 18.5389 268.359 18.5702 268.734 18.6327C269.125 18.6952 269.516 18.7733 269.906 18.8671ZM291.633 44.4374H283.922L285 38.5311L291.867 38.578C293.898 38.578 295.594 38.0858 296.953 37.1014C298.312 36.1171 299.383 34.828 300.164 33.2343C300.945 31.6249 301.469 29.9139 301.734 28.1014L301.922 26.5311C302.062 25.4218 302.117 24.2811 302.086 23.1093C302.055 21.9218 301.859 20.8202 301.5 19.8046C301.141 18.7889 300.562 17.9608 299.766 17.3202C298.969 16.6639 297.867 16.3124 296.461 16.2655L288.68 16.2421L289.711 10.3124L296.695 10.3358C298.977 10.3827 300.969 10.8514 302.672 11.7421C304.391 12.6171 305.789 13.8124 306.867 15.328C307.961 16.828 308.727 18.5468 309.164 20.4843C309.617 22.4061 309.719 24.4296 309.469 26.5546L309.281 28.1249C308.984 30.4218 308.344 32.5624 307.359 34.5468C306.375 36.5311 305.109 38.2655 303.562 39.7499C302.016 41.2343 300.234 42.3905 298.219 43.2186C296.203 44.0468 294.008 44.453 291.633 44.4374ZM294.094 10.3124L288.164 44.4374H280.734L286.641 10.3124H294.094ZM321.023 25.3827L317.719 44.4374H310.57L314.977 19.078H321.656L321.023 25.3827ZM329.297 18.8671L328.406 25.6874C328 25.6249 327.602 25.5702 327.211 25.5233C326.82 25.4764 326.422 25.453 326.016 25.453C325.125 25.4374 324.32 25.5468 323.602 25.7811C322.898 25.9999 322.281 26.3358 321.75 26.7889C321.234 27.2421 320.805 27.8046 320.461 28.4764C320.117 29.1327 319.859 29.8827 319.687 30.7264L318.375 30.0702C318.547 28.8671 318.812 27.6014 319.172 26.2733C319.531 24.9296 320.031 23.6718 320.672 22.4999C321.328 21.3124 322.164 20.3593 323.18 19.6405C324.211 18.9061 325.477 18.5389 326.977 18.5389C327.367 18.5389 327.75 18.5702 328.125 18.6327C328.516 18.6952 328.906 18.7733 329.297 18.8671ZM339.82 19.078L335.437 44.4374H328.266L332.672 19.078H339.82ZM333.375 12.6327C333.344 11.4921 333.719 10.5858 334.5 9.91394C335.297 9.22644 336.242 8.87488 337.336 8.85925C338.383 8.84363 339.305 9.15613 340.102 9.79675C340.898 10.4218 341.305 11.2811 341.32 12.3749C341.336 13.5155 340.945 14.4296 340.148 15.1171C339.367 15.7889 338.437 16.1327 337.359 16.1483C336.312 16.1639 335.391 15.8593 334.594 15.2343C333.812 14.6093 333.406 13.7421 333.375 12.6327ZM350.859 24.8905L347.437 44.4374H340.289L344.695 19.078H351.375L350.859 24.8905ZM348.914 30.8671L347.297 30.9374C347.453 29.4218 347.781 27.9218 348.281 26.4374C348.781 24.953 349.469 23.6171 350.344 22.4296C351.234 21.2264 352.328 20.2811 353.625 19.5936C354.922 18.8905 356.445 18.5546 358.195 18.5858C359.602 18.6327 360.758 18.9374 361.664 19.4999C362.586 20.0468 363.289 20.7811 363.773 21.703C364.273 22.6093 364.594 23.6405 364.734 24.7968C364.875 25.9374 364.875 27.1249 364.734 28.3593L362.062 44.4374H354.867L357.586 28.2889C357.664 27.5233 357.641 26.8358 357.516 26.2264C357.391 25.6171 357.102 25.1483 356.648 24.8202C356.211 24.4764 355.555 24.2889 354.68 24.2577C353.742 24.2421 352.937 24.4296 352.266 24.8202C351.594 25.1952 351.031 25.7108 350.578 26.3671C350.125 27.0077 349.766 27.7264 349.5 28.5233C349.25 29.3046 349.055 30.0858 348.914 30.8671ZM380.086 8.41394L373.828 44.4374H366.68L372.937 8.41394H380.086ZM394.125 19.078L381.164 31.8749L374.461 37.7577L372.281 32.4139L377.789 26.4843L385.031 19.078H394.125ZM382.102 44.4374L377.086 32.5311L382.617 28.6405L389.977 44.4374H382.102ZM4.26556 66.3124L16.5937 66.3358C18.6718 66.3671 20.5703 66.7499 22.289 67.4843C24.0234 68.203 25.3749 69.2968 26.3437 70.7655C27.3124 72.2343 27.7187 74.1171 27.5624 76.4139C27.4218 78.2733 26.9843 79.8514 26.2499 81.1483C25.5312 82.4296 24.5624 83.5233 23.3437 84.4296C22.1249 85.3202 20.7031 86.1014 19.0781 86.7733L16.4296 88.1093H5.20306L6.21088 82.1796L13.8984 82.2264C14.9765 82.2108 15.9531 81.9999 16.8281 81.5936C17.7031 81.1874 18.4218 80.6093 18.9843 79.8593C19.5468 79.0936 19.8984 78.1561 20.039 77.0468C20.1796 76.1249 20.1328 75.3124 19.8984 74.6093C19.6796 73.9061 19.2656 73.3514 18.6562 72.9452C18.0624 72.5389 17.2968 72.3124 16.3593 72.2655L10.6874 72.2421L5.789 100.437H-1.64069L4.26556 66.3124ZM16.8515 100.437L12.0468 85.2733L19.5703 85.2499L24.7968 100.062L24.7734 100.437H16.8515ZM40.3124 100.906C38.5624 100.875 36.9765 100.547 35.5546 99.9218C34.1484 99.2968 32.9609 98.4374 31.9921 97.3436C31.0234 96.2343 30.3124 94.9452 29.8593 93.4764C29.4062 92.0077 29.2421 90.4061 29.3671 88.6718L29.4609 87.7577C29.6484 85.9452 30.0781 84.2421 30.7499 82.6483C31.4374 81.0546 32.3515 79.6483 33.4921 78.4296C34.6328 77.1952 35.9765 76.2421 37.5234 75.5702C39.0859 74.8827 40.8281 74.5624 42.7499 74.6093C44.5156 74.6405 46.0312 74.9999 47.2968 75.6874C48.5781 76.3593 49.6093 77.2733 50.3906 78.4296C51.1874 79.5858 51.7343 80.8983 52.0312 82.3671C52.3281 83.8358 52.3906 85.3905 52.2187 87.0311L51.7968 90.0311H31.9453L32.6953 85.3202L45.3749 85.3436L45.5156 84.7108C45.6249 83.9139 45.5859 83.1874 45.3984 82.5311C45.2109 81.8593 44.8593 81.3202 44.3437 80.9139C43.8281 80.5077 43.1328 80.2889 42.2578 80.2577C41.2421 80.2421 40.3906 80.4608 39.7031 80.9139C39.0156 81.3671 38.4609 81.9764 38.039 82.7421C37.6171 83.4921 37.289 84.3124 37.0546 85.203C36.8359 86.078 36.6718 86.9296 36.5624 87.7577L36.4687 88.6483C36.4062 89.4608 36.4296 90.2499 36.539 91.0155C36.664 91.7811 36.8984 92.4764 37.2421 93.1014C37.6015 93.7108 38.0859 94.2108 38.6953 94.6014C39.3203 94.9764 40.0937 95.1796 41.0156 95.2108C42.2187 95.2421 43.3359 95.0077 44.3671 94.5077C45.414 94.0077 46.3515 93.3358 47.1796 92.4921L50.2734 96.4061C49.5546 97.4686 48.6484 98.3358 47.5546 99.0077C46.4609 99.6639 45.2812 100.148 44.0156 100.461C42.7656 100.773 41.5312 100.922 40.3124 100.906ZM70.289 75.078L69.3749 80.2108H54.7734L55.664 75.078H70.289ZM60.0937 68.7968H67.2421L63.164 92.5389C63.1015 93.0858 63.1015 93.5389 63.164 93.8983C63.2421 94.2577 63.414 94.5389 63.6796 94.7421C63.9609 94.9296 64.3906 95.0389 64.9687 95.0702C65.3124 95.0858 65.6484 95.078 65.9765 95.0468C66.3046 94.9999 66.6328 94.9608 66.9609 94.9296L66.4453 100.297C65.8046 100.5 65.1484 100.648 64.4765 100.742C63.8203 100.836 63.1484 100.883 62.4609 100.883C60.914 100.851 59.6328 100.531 58.6171 99.9218C57.6015 99.2968 56.8671 98.4218 56.414 97.2968C55.9765 96.1561 55.8281 94.828 55.9687 93.3124L60.0937 68.7968ZM82.4765 64.4374L76.2187 100.437H69.0468L75.3046 64.4374H82.4765ZM77.6718 86.8671L75.9843 86.9374C76.1406 85.4999 76.4609 84.0546 76.9453 82.6014C77.4453 81.1327 78.1249 79.7889 78.9843 78.5702C79.8437 77.3358 80.8984 76.3514 82.1484 75.6171C83.3984 74.8827 84.8593 74.5389 86.5312 74.5858C87.9843 74.6171 89.1874 74.9139 90.1406 75.4764C91.0937 76.0233 91.8359 76.7655 92.3671 77.703C92.914 78.6249 93.2734 79.6796 93.4453 80.8671C93.6171 82.0389 93.6328 83.2655 93.4921 84.5468L90.8437 100.437H83.6484L86.3437 84.4764C86.4218 83.6796 86.3984 82.9686 86.2734 82.3436C86.164 81.7186 85.8828 81.2264 85.4296 80.8671C84.9921 80.4921 84.3359 80.2889 83.4609 80.2577C82.4765 80.2421 81.6406 80.4218 80.9531 80.7968C80.2812 81.1561 79.7265 81.6561 79.289 82.2968C78.8515 82.9374 78.5078 83.6561 78.2578 84.453C78.0078 85.2499 77.8124 86.0546 77.6718 86.8671ZM107.367 75.078L102.984 100.437H95.8124L100.219 75.078H107.367ZM100.922 68.6327C100.891 67.4921 101.266 66.5858 102.047 65.9139C102.844 65.2264 103.789 64.8749 104.883 64.8593C105.93 64.8436 106.852 65.1561 107.648 65.7968C108.445 66.4218 108.852 67.2811 108.867 68.3749C108.883 69.5155 108.492 70.4296 107.695 71.1171C106.914 71.7889 105.984 72.1327 104.906 72.1483C103.859 72.1639 102.937 71.8593 102.141 71.2343C101.359 70.6093 100.953 69.7421 100.922 68.6327ZM118.406 80.8905L114.984 100.437H107.836L112.242 75.078H118.922L118.406 80.8905ZM116.461 86.8671L114.844 86.9374C115 85.4218 115.328 83.9218 115.828 82.4374C116.328 80.953 117.016 79.6171 117.891 78.4296C118.781 77.2264 119.875 76.2811 121.172 75.5936C122.469 74.8905 123.992 74.5546 125.742 74.5858C127.148 74.6327 128.305 74.9374 129.211 75.4999C130.133 76.0468 130.836 76.7811 131.32 77.703C131.82 78.6093 132.141 79.6405 132.281 80.7968C132.422 81.9374 132.422 83.1249 132.281 84.3593L129.609 100.437H122.414L125.133 84.2889C125.211 83.5233 125.187 82.8358 125.062 82.2264C124.937 81.6171 124.648 81.1483 124.195 80.8202C123.758 80.4764 123.102 80.2889 122.227 80.2577C121.289 80.2421 120.484 80.4296 119.812 80.8202C119.141 81.1952 118.578 81.7108 118.125 82.3671C117.672 83.0077 117.312 83.7264 117.047 84.5233C116.797 85.3046 116.602 86.0858 116.461 86.8671ZM147.633 64.4139L141.375 100.437H134.227L140.484 64.4139H147.633ZM161.672 75.078L148.711 87.8749L142.008 93.7577L139.828 88.4139L145.336 82.4843L152.578 75.078H161.672ZM149.648 100.437L144.633 88.5311L150.164 84.6405L157.523 100.437H149.648ZM182.695 66.3124L186.539 81.453L195.656 66.3124H204.047L189.258 88.4608L187.195 100.437H179.625L181.852 87.7343L174.867 66.3358L182.695 66.3124ZM199.898 88.1561L199.945 87.6639C200.148 85.8514 200.594 84.1483 201.281 82.5546C201.969 80.9608 202.883 79.5624 204.023 78.3593C205.164 77.1561 206.508 76.2186 208.055 75.5468C209.602 74.8749 211.336 74.5624 213.258 74.6093C215.102 74.6405 216.695 75.0077 218.039 75.7108C219.398 76.3983 220.508 77.3358 221.367 78.5233C222.227 79.7108 222.836 81.0702 223.195 82.6014C223.555 84.1327 223.656 85.7577 223.5 87.4764L223.453 87.9921C223.25 89.7889 222.797 91.4764 222.094 93.0546C221.391 94.6327 220.469 96.0155 219.328 97.203C218.187 98.3905 216.844 99.3202 215.297 99.9921C213.75 100.648 212.023 100.953 210.117 100.906C208.289 100.875 206.695 100.516 205.336 99.828C203.992 99.1405 202.891 98.2108 202.031 97.0389C201.172 95.8671 200.562 94.5233 200.203 93.0077C199.844 91.4921 199.742 89.8749 199.898 88.1561ZM207.094 87.6639L207.047 88.1561C207 88.8593 206.977 89.6171 206.977 90.4296C206.992 91.2264 207.102 91.9921 207.305 92.7264C207.523 93.4608 207.883 94.0624 208.383 94.5311C208.898 94.9843 209.617 95.2264 210.539 95.2577C211.539 95.2889 212.383 95.0858 213.07 94.6483C213.758 94.2108 214.32 93.6249 214.758 92.8905C215.211 92.1405 215.555 91.3358 215.789 90.4764C216.039 89.6171 216.203 88.7811 216.281 87.9686L216.328 87.4764C216.391 86.7889 216.414 86.0389 216.398 85.2264C216.398 84.3983 216.289 83.6171 216.07 82.8827C215.867 82.1327 215.508 81.5233 214.992 81.0546C214.477 80.5702 213.758 80.3124 212.836 80.2811C211.836 80.2499 210.984 80.4608 210.281 80.9139C209.594 81.3671 209.031 81.9686 208.594 82.7186C208.156 83.4686 207.82 84.2811 207.586 85.1561C207.352 86.0155 207.187 86.8514 207.094 87.6639ZM240.516 93.9452L243.797 75.078H250.969L246.562 100.437H239.883L240.516 93.9452ZM241.992 89.1171L243.961 89.0702C243.789 90.5233 243.461 91.9686 242.977 93.4061C242.508 94.828 241.852 96.1093 241.008 97.2499C240.18 98.3905 239.141 99.2968 237.891 99.9686C236.656 100.641 235.195 100.961 233.508 100.93C232.117 100.898 230.945 100.633 229.992 100.133C229.039 99.6327 228.273 98.9452 227.695 98.0702C227.133 97.1952 226.75 96.1952 226.547 95.0702C226.359 93.9452 226.328 92.7499 226.453 91.4843L229.195 75.078H236.344L233.555 91.578C233.508 92.0624 233.508 92.5233 233.555 92.9608C233.617 93.3983 233.742 93.7811 233.93 94.1093C234.117 94.4374 234.383 94.703 234.727 94.9061C235.086 95.0936 235.547 95.1952 236.109 95.2108C237.375 95.2733 238.406 95.0233 239.203 94.4608C240.016 93.8827 240.641 93.1249 241.078 92.1874C241.531 91.2343 241.836 90.2108 241.992 89.1171ZM261.633 81.3827L258.328 100.437H251.18L255.586 75.078H262.266L261.633 81.3827ZM269.906 74.8671L269.016 81.6874C268.609 81.6249 268.211 81.5702 267.82 81.5233C267.43 81.4764 267.031 81.453 266.625 81.453C265.734 81.4374 264.93 81.5468 264.211 81.7811C263.508 81.9999 262.891 82.3358 262.359 82.7889C261.844 83.2421 261.414 83.8046 261.07 84.4764C260.727 85.1327 260.469 85.8827 260.297 86.7264L258.984 86.0702C259.156 84.8671 259.422 83.6014 259.781 82.2733C260.141 80.9296 260.641 79.6718 261.281 78.4999C261.937 77.3124 262.773 76.3593 263.789 75.6405C264.82 74.9061 266.086 74.5389 267.586 74.5389C267.977 74.5389 268.359 74.5702 268.734 74.6327C269.125 74.6952 269.516 74.7733 269.906 74.8671ZM291.633 100.437H283.922L285 94.5311L291.867 94.578C293.898 94.578 295.594 94.0858 296.953 93.1014C298.312 92.1171 299.383 90.828 300.164 89.2343C300.945 87.6249 301.469 85.9139 301.734 84.1014L301.922 82.5311C302.062 81.4218 302.117 80.2811 302.086 79.1093C302.055 77.9218 301.859 76.8202 301.5 75.8046C301.141 74.7889 300.562 73.9608 299.766 73.3202C298.969 72.6639 297.867 72.3124 296.461 72.2655L288.68 72.2421L289.711 66.3124L296.695 66.3358C298.977 66.3827 300.969 66.8514 302.672 67.7421C304.391 68.6171 305.789 69.8124 306.867 71.328C307.961 72.828 308.727 74.5468 309.164 76.4843C309.617 78.4061 309.719 80.4296 309.469 82.5546L309.281 84.1249C308.984 86.4218 308.344 88.5624 307.359 90.5468C306.375 92.5311 305.109 94.2655 303.562 95.7499C302.016 97.2343 300.234 98.3905 298.219 99.2186C296.203 100.047 294.008 100.453 291.633 100.437ZM294.094 66.3124L288.164 100.437H280.734L286.641 66.3124H294.094ZM321.023 81.3827L317.719 100.437H310.57L314.977 75.078H321.656L321.023 81.3827ZM329.297 74.8671L328.406 81.6874C328 81.6249 327.602 81.5702 327.211 81.5233C326.82 81.4764 326.422 81.453 326.016 81.453C325.125 81.4374 324.32 81.5468 323.602 81.7811C322.898 81.9999 322.281 82.3358 321.75 82.7889C321.234 83.2421 320.805 83.8046 320.461 84.4764C320.117 85.1327 319.859 85.8827 319.687 86.7264L318.375 86.0702C318.547 84.8671 318.812 83.6014 319.172 82.2733C319.531 80.9296 320.031 79.6718 320.672 78.4999C321.328 77.3124 322.164 76.3593 323.18 75.6405C324.211 74.9061 325.477 74.5389 326.977 74.5389C327.367 74.5389 327.75 74.5702 328.125 74.6327C328.516 74.6952 328.906 74.7733 329.297 74.8671ZM339.82 75.078L335.437 100.437H328.266L332.672 75.078H339.82ZM333.375 68.6327C333.344 67.4921 333.719 66.5858 334.5 65.9139C335.297 65.2264 336.242 64.8749 337.336 64.8593C338.383 64.8436 339.305 65.1561 340.102 65.7968C340.898 66.4218 341.305 67.2811 341.32 68.3749C341.336 69.5155 340.945 70.4296 340.148 71.1171C339.367 71.7889 338.437 72.1327 337.359 72.1483C336.312 72.1639 335.391 71.8593 334.594 71.2343C333.812 70.6093 333.406 69.7421 333.375 68.6327ZM350.859 80.8905L347.437 100.437H340.289L344.695 75.078H351.375L350.859 80.8905ZM348.914 86.8671L347.297 86.9374C347.453 85.4218 347.781 83.9218 348.281 82.4374C348.781 80.953 349.469 79.6171 350.344 78.4296C351.234 77.2264 352.328 76.2811 353.625 75.5936C354.922 74.8905 356.445 74.5546 358.195 74.5858C359.602 74.6327 360.758 74.9374 361.664 75.4999C362.586 76.0468 363.289 76.7811 363.773 77.703C364.273 78.6093 364.594 79.6405 364.734 80.7968C364.875 81.9374 364.875 83.1249 364.734 84.3593L362.062 100.437H354.867L357.586 84.2889C357.664 83.5233 357.641 82.8358 357.516 82.2264C357.391 81.6171 357.102 81.1483 356.648 80.8202C356.211 80.4764 355.555 80.2889 354.68 80.2577C353.742 80.2421 352.937 80.4296 352.266 80.8202C351.594 81.1952 351.031 81.7108 350.578 82.3671C350.125 83.0077 349.766 83.7264 349.5 84.5233C349.25 85.3046 349.055 86.0858 348.914 86.8671ZM380.086 64.4139L373.828 100.437H366.68L372.937 64.4139H380.086ZM394.125 75.078L381.164 87.8749L374.461 93.7577L372.281 88.4139L377.789 82.4843L385.031 75.078H394.125ZM382.102 100.437L377.086 88.5311L382.617 84.6405L389.977 100.437H382.102ZM4.26556 122.312L16.5937 122.336C18.6718 122.367 20.5703 122.75 22.289 123.484C24.0234 124.203 25.3749 125.297 26.3437 126.766C27.3124 128.234 27.7187 130.117 27.5624 132.414C27.4218 134.273 26.9843 135.851 26.2499 137.148C25.5312 138.43 24.5624 139.523 23.3437 140.43C22.1249 141.32 20.7031 142.101 19.0781 142.773L16.4296 144.109H5.20306L6.21088 138.18L13.8984 138.226C14.9765 138.211 15.9531 138 16.8281 137.594C17.7031 137.187 18.4218 136.609 18.9843 135.859C19.5468 135.094 19.8984 134.156 20.039 133.047C20.1796 132.125 20.1328 131.312 19.8984 130.609C19.6796 129.906 19.2656 129.351 18.6562 128.945C18.0624 128.539 17.2968 128.312 16.3593 128.266L10.6874 128.242L5.789 156.437H-1.64069L4.26556 122.312ZM16.8515 156.437L12.0468 141.273L19.5703 141.25L24.7968 156.062L24.7734 156.437H16.8515ZM40.3124 156.906C38.5624 156.875 36.9765 156.547 35.5546 155.922C34.1484 155.297 32.9609 154.437 31.9921 153.344C31.0234 152.234 30.3124 150.945 29.8593 149.476C29.4062 148.008 29.2421 146.406 29.3671 144.672L29.4609 143.758C29.6484 141.945 30.0781 140.242 30.7499 138.648C31.4374 137.055 32.3515 135.648 33.4921 134.43C34.6328 133.195 35.9765 132.242 37.5234 131.57C39.0859 130.883 40.8281 130.562 42.7499 130.609C44.5156 130.641 46.0312 131 47.2968 131.687C48.5781 132.359 49.6093 133.273 50.3906 134.43C51.1874 135.586 51.7343 136.898 52.0312 138.367C52.3281 139.836 52.3906 141.391 52.2187 143.031L51.7968 146.031H31.9453L32.6953 141.32L45.3749 141.344L45.5156 140.711C45.6249 139.914 45.5859 139.187 45.3984 138.531C45.2109 137.859 44.8593 137.32 44.3437 136.914C43.8281 136.508 43.1328 136.289 42.2578 136.258C41.2421 136.242 40.3906 136.461 39.7031 136.914C39.0156 137.367 38.4609 137.976 38.039 138.742C37.6171 139.492 37.289 140.312 37.0546 141.203C36.8359 142.078 36.6718 142.93 36.5624 143.758L36.4687 144.648C36.4062 145.461 36.4296 146.25 36.539 147.016C36.664 147.781 36.8984 148.476 37.2421 149.101C37.6015 149.711 38.0859 150.211 38.6953 150.601C39.3203 150.976 40.0937 151.18 41.0156 151.211C42.2187 151.242 43.3359 151.008 44.3671 150.508C45.414 150.008 46.3515 149.336 47.1796 148.492L50.2734 152.406C49.5546 153.469 48.6484 154.336 47.5546 155.008C46.4609 155.664 45.2812 156.148 44.0156 156.461C42.7656 156.773 41.5312 156.922 40.3124 156.906ZM70.289 131.078L69.3749 136.211H54.7734L55.664 131.078H70.289ZM60.0937 124.797H67.2421L63.164 148.539C63.1015 149.086 63.1015 149.539 63.164 149.898C63.2421 150.258 63.414 150.539 63.6796 150.742C63.9609 150.93 64.3906 151.039 64.9687 151.07C65.3124 151.086 65.6484 151.078 65.9765 151.047C66.3046 151 66.6328 150.961 66.9609 150.93L66.4453 156.297C65.8046 156.5 65.1484 156.648 64.4765 156.742C63.8203 156.836 63.1484 156.883 62.4609 156.883C60.914 156.851 59.6328 156.531 58.6171 155.922C57.6015 155.297 56.8671 154.422 56.414 153.297C55.9765 152.156 55.8281 150.828 55.9687 149.312L60.0937 124.797ZM82.4765 120.437L76.2187 156.437H69.0468L75.3046 120.437H82.4765ZM77.6718 142.867L75.9843 142.937C76.1406 141.5 76.4609 140.055 76.9453 138.601C77.4453 137.133 78.1249 135.789 78.9843 134.57C79.8437 133.336 80.8984 132.351 82.1484 131.617C83.3984 130.883 84.8593 130.539 86.5312 130.586C87.9843 130.617 89.1874 130.914 90.1406 131.476C91.0937 132.023 91.8359 132.766 92.3671 133.703C92.914 134.625 93.2734 135.68 93.4453 136.867C93.6171 138.039 93.6328 139.266 93.4921 140.547L90.8437 156.437H83.6484L86.3437 140.476C86.4218 139.68 86.3984 138.969 86.2734 138.344C86.164 137.719 85.8828 137.226 85.4296 136.867C84.9921 136.492 84.3359 136.289 83.4609 136.258C82.4765 136.242 81.6406 136.422 80.9531 136.797C80.2812 137.156 79.7265 137.656 79.289 138.297C78.8515 138.937 78.5078 139.656 78.2578 140.453C78.0078 141.25 77.8124 142.055 77.6718 142.867ZM107.367 131.078L102.984 156.437H95.8124L100.219 131.078H107.367ZM100.922 124.633C100.891 123.492 101.266 122.586 102.047 121.914C102.844 121.226 103.789 120.875 104.883 120.859C105.93 120.844 106.852 121.156 107.648 121.797C108.445 122.422 108.852 123.281 108.867 124.375C108.883 125.516 108.492 126.43 107.695 127.117C106.914 127.789 105.984 128.133 104.906 128.148C103.859 128.164 102.937 127.859 102.141 127.234C101.359 126.609 100.953 125.742 100.922 124.633ZM118.406 136.891L114.984 156.437H107.836L112.242 131.078H118.922L118.406 136.891ZM116.461 142.867L114.844 142.937C115 141.422 115.328 139.922 115.828 138.437C116.328 136.953 117.016 135.617 117.891 134.43C118.781 133.226 119.875 132.281 121.172 131.594C122.469 130.891 123.992 130.555 125.742 130.586C127.148 130.633 128.305 130.937 129.211 131.5C130.133 132.047 130.836 132.781 131.32 133.703C131.82 134.609 132.141 135.641 132.281 136.797C132.422 137.937 132.422 139.125 132.281 140.359L129.609 156.437H122.414L125.133 140.289C125.211 139.523 125.187 138.836 125.062 138.226C124.937 137.617 124.648 137.148 124.195 136.82C123.758 136.476 123.102 136.289 122.227 136.258C121.289 136.242 120.484 136.43 119.812 136.82C119.141 137.195 118.578 137.711 118.125 138.367C117.672 139.008 117.312 139.726 117.047 140.523C116.797 141.305 116.602 142.086 116.461 142.867ZM147.633 120.414L141.375 156.437H134.227L140.484 120.414H147.633ZM161.672 131.078L148.711 143.875L142.008 149.758L139.828 144.414L145.336 138.484L152.578 131.078H161.672ZM149.648 156.437L144.633 144.531L150.164 140.641L157.523 156.437H149.648ZM182.695 122.312L186.539 137.453L195.656 122.312H204.047L189.258 144.461L187.195 156.437H179.625L181.852 143.734L174.867 122.336L182.695 122.312ZM199.898 144.156L199.945 143.664C200.148 141.851 200.594 140.148 201.281 138.555C201.969 136.961 202.883 135.562 204.023 134.359C205.164 133.156 206.508 132.219 208.055 131.547C209.602 130.875 211.336 130.562 213.258 130.609C215.102 130.641 216.695 131.008 218.039 131.711C219.398 132.398 220.508 133.336 221.367 134.523C222.227 135.711 222.836 137.07 223.195 138.601C223.555 140.133 223.656 141.758 223.5 143.476L223.453 143.992C223.25 145.789 222.797 147.476 222.094 149.055C221.391 150.633 220.469 152.016 219.328 153.203C218.187 154.391 216.844 155.32 215.297 155.992C213.75 156.648 212.023 156.953 210.117 156.906C208.289 156.875 206.695 156.516 205.336 155.828C203.992 155.141 202.891 154.211 202.031 153.039C201.172 151.867 200.562 150.523 200.203 149.008C199.844 147.492 199.742 145.875 199.898 144.156ZM207.094 143.664L207.047 144.156C207 144.859 206.977 145.617 206.977 146.43C206.992 147.226 207.102 147.992 207.305 148.726C207.523 149.461 207.883 150.062 208.383 150.531C208.898 150.984 209.617 151.226 210.539 151.258C211.539 151.289 212.383 151.086 213.07 150.648C213.758 150.211 214.32 149.625 214.758 148.891C215.211 148.141 215.555 147.336 215.789 146.476C216.039 145.617 216.203 144.781 216.281 143.969L216.328 143.476C216.391 142.789 216.414 142.039 216.398 141.226C216.398 140.398 216.289 139.617 216.07 138.883C215.867 138.133 215.508 137.523 214.992 137.055C214.477 136.57 213.758 136.312 212.836 136.281C211.836 136.25 210.984 136.461 210.281 136.914C209.594 137.367 209.031 137.969 208.594 138.719C208.156 139.469 207.82 140.281 207.586 141.156C207.352 142.016 207.187 142.851 207.094 143.664ZM240.516 149.945L243.797 131.078H250.969L246.562 156.437H239.883L240.516 149.945ZM241.992 145.117L243.961 145.07C243.789 146.523 243.461 147.969 242.977 149.406C242.508 150.828 241.852 152.109 241.008 153.25C240.18 154.391 239.141 155.297 237.891 155.969C236.656 156.641 235.195 156.961 233.508 156.93C232.117 156.898 230.945 156.633 229.992 156.133C229.039 155.633 228.273 154.945 227.695 154.07C227.133 153.195 226.75 152.195 226.547 151.07C226.359 149.945 226.328 148.75 226.453 147.484L229.195 131.078H236.344L233.555 147.578C233.508 148.062 233.508 148.523 233.555 148.961C233.617 149.398 233.742 149.781 233.93 150.109C234.117 150.437 234.383 150.703 234.727 150.906C235.086 151.094 235.547 151.195 236.109 151.211C237.375 151.273 238.406 151.023 239.203 150.461C240.016 149.883 240.641 149.125 241.078 148.187C241.531 147.234 241.836 146.211 241.992 145.117ZM261.633 137.383L258.328 156.437H251.18L255.586 131.078H262.266L261.633 137.383ZM269.906 130.867L269.016 137.687C268.609 137.625 268.211 137.57 267.82 137.523C267.43 137.476 267.031 137.453 266.625 137.453C265.734 137.437 264.93 137.547 264.211 137.781C263.508 138 262.891 138.336 262.359 138.789C261.844 139.242 261.414 139.805 261.07 140.476C260.727 141.133 260.469 141.883 260.297 142.726L258.984 142.07C259.156 140.867 259.422 139.601 259.781 138.273C260.141 136.93 260.641 135.672 261.281 134.5C261.937 133.312 262.773 132.359 263.789 131.641C264.82 130.906 266.086 130.539 267.586 130.539C267.977 130.539 268.359 130.57 268.734 130.633C269.125 130.695 269.516 130.773 269.906 130.867ZM291.633 156.437H283.922L285 150.531L291.867 150.578C293.898 150.578 295.594 150.086 296.953 149.101C298.312 148.117 299.383 146.828 300.164 145.234C300.945 143.625 301.469 141.914 301.734 140.101L301.922 138.531C302.062 137.422 302.117 136.281 302.086 135.109C302.055 133.922 301.859 132.82 301.5 131.805C301.141 130.789 300.562 129.961 299.766 129.32C298.969 128.664 297.867 128.312 296.461 128.266L288.68 128.242L289.711 122.312L296.695 122.336C298.977 122.383 300.969 122.851 302.672 123.742C304.391 124.617 305.789 125.812 306.867 127.328C307.961 128.828 308.727 130.547 309.164 132.484C309.617 134.406 309.719 136.43 309.469 138.555L309.281 140.125C308.984 142.422 308.344 144.562 307.359 146.547C306.375 148.531 305.109 150.266 303.562 151.75C302.016 153.234 300.234 154.391 298.219 155.219C296.203 156.047 294.008 156.453 291.633 156.437ZM294.094 122.312L288.164 156.437H280.734L286.641 122.312H294.094ZM321.023 137.383L317.719 156.437H310.57L314.977 131.078H321.656L321.023 137.383ZM329.297 130.867L328.406 137.687C328 137.625 327.602 137.57 327.211 137.523C326.82 137.476 326.422 137.453 326.016 137.453C325.125 137.437 324.32 137.547 323.602 137.781C322.898 138 322.281 138.336 321.75 138.789C321.234 139.242 320.805 139.805 320.461 140.476C320.117 141.133 319.859 141.883 319.687 142.726L318.375 142.07C318.547 140.867 318.812 139.601 319.172 138.273C319.531 136.93 320.031 135.672 320.672 134.5C321.328 133.312 322.164 132.359 323.18 131.641C324.211 130.906 325.477 130.539 326.977 130.539C327.367 130.539 327.75 130.57 328.125 130.633C328.516 130.695 328.906 130.773 329.297 130.867ZM339.82 131.078L335.437 156.437H328.266L332.672 131.078H339.82ZM333.375 124.633C333.344 123.492 333.719 122.586 334.5 121.914C335.297 121.226 336.242 120.875 337.336 120.859C338.383 120.844 339.305 121.156 340.102 121.797C340.898 122.422 341.305 123.281 341.32 124.375C341.336 125.516 340.945 126.43 340.148 127.117C339.367 127.789 338.437 128.133 337.359 128.148C336.312 128.164 335.391 127.859 334.594 127.234C333.812 126.609 333.406 125.742 333.375 124.633ZM350.859 136.891L347.437 156.437H340.289L344.695 131.078H351.375L350.859 136.891ZM348.914 142.867L347.297 142.937C347.453 141.422 347.781 139.922 348.281 138.437C348.781 136.953 349.469 135.617 350.344 134.43C351.234 133.226 352.328 132.281 353.625 131.594C354.922 130.891 356.445 130.555 358.195 130.586C359.602 130.633 360.758 130.937 361.664 131.5C362.586 132.047 363.289 132.781 363.773 133.703C364.273 134.609 364.594 135.641 364.734 136.797C364.875 137.937 364.875 139.125 364.734 140.359L362.062 156.437H354.867L357.586 140.289C357.664 139.523 357.641 138.836 357.516 138.226C357.391 137.617 357.102 137.148 356.648 136.82C356.211 136.476 355.555 136.289 354.68 136.258C353.742 136.242 352.937 136.43 352.266 136.82C351.594 137.195 351.031 137.711 350.578 138.367C350.125 139.008 349.766 139.726 349.5 140.523C349.25 141.305 349.055 142.086 348.914 142.867ZM380.086 120.414L373.828 156.437H366.68L372.937 120.414H380.086ZM394.125 131.078L381.164 143.875L374.461 149.758L372.281 144.414L377.789 138.484L385.031 131.078H394.125ZM382.102 156.437L377.086 144.531L382.617 140.641L389.977 156.437H382.102Z" fill="#C2D5FF"/>
<rect x="-0.013916" y="151.99" width="390" height="7.46405" fill="#050540"/>
</svg>
