<svg width="390" height="158" viewBox="0 0 390 158" fill="none" xmlns="http://www.w3.org/2000/svg">
<rect x="-0.013916" y="9.16861" width="390" height="146.839" fill="#050540"/>
<path d="M12.2059 10.2969L24.0204 10.3193C26.0119 10.3493 27.8313 10.7161 29.4784 11.4199C31.1405 12.1087 32.4358 13.1569 33.3641 14.5645C34.2925 15.972 34.6818 17.7764 34.5321 19.9775C34.3973 21.7594 33.9781 23.2718 33.2743 24.5146C32.5855 25.7425 31.6571 26.7907 30.4891 27.6592C29.3212 28.5127 27.9585 29.2614 26.4012 29.9053L23.8632 31.1855H13.1044L14.0702 25.5029L21.4374 25.5479C22.4706 25.5329 23.4065 25.3307 24.245 24.9414C25.0835 24.5521 25.7723 23.998 26.3114 23.2793C26.8505 22.5456 27.1874 21.6471 27.3221 20.584C27.4569 19.7005 27.412 18.9219 27.1874 18.248C26.9777 17.5742 26.5809 17.0426 25.9969 16.6533C25.4279 16.264 24.6942 16.0469 23.7958 16.002L18.3602 15.9795L13.6659 43H6.54578L12.2059 10.2969ZM24.2675 43L19.663 28.4678L26.8729 28.4453L31.8817 42.6406L31.8593 43H24.2675ZM46.7509 43.4492C45.0738 43.4193 43.5539 43.1048 42.1913 42.5059C40.8436 41.9069 39.7056 41.0833 38.7772 40.0352C37.8488 38.972 37.1675 37.7367 36.7333 36.3291C36.299 34.9215 36.1418 33.3867 36.2616 31.7246L36.3514 30.8486C36.5311 29.1117 36.9429 27.4795 37.5868 25.9521C38.2456 24.4248 39.1216 23.0771 40.2147 21.9092C41.3078 20.7262 42.5956 19.8128 44.078 19.1689C45.5754 18.5101 47.245 18.2031 49.0868 18.248C50.7788 18.278 52.2313 18.6224 53.4442 19.2812C54.6721 19.9251 55.6604 20.8011 56.4091 21.9092C57.1727 23.0173 57.6968 24.2751 57.9813 25.6826C58.2658 27.0902 58.3257 28.5801 58.161 30.1523L57.7567 33.0273H38.7323L39.451 28.5127L51.6024 28.5352L51.7372 27.9287C51.842 27.165 51.8046 26.4688 51.6249 25.8398C51.4452 25.196 51.1083 24.6794 50.6141 24.29C50.12 23.9007 49.4537 23.6911 48.6151 23.6611C47.6418 23.6462 46.8257 23.8558 46.1669 24.29C45.508 24.7243 44.9764 25.3083 44.5721 26.042C44.1678 26.7607 43.8534 27.5469 43.6288 28.4004C43.4191 29.2389 43.2619 30.055 43.1571 30.8486L43.0673 31.7021C43.0074 32.4808 43.0298 33.237 43.1346 33.9707C43.2544 34.7044 43.479 35.3708 43.8085 35.9697C44.1529 36.5537 44.6171 37.0329 45.201 37.4072C45.8 37.7666 46.5412 37.9613 47.4247 37.9912C48.5777 38.0212 49.6483 37.7965 50.6366 37.3174C51.6399 36.8382 52.5383 36.1943 53.3319 35.3857L56.2968 39.1367C55.608 40.1549 54.7395 40.986 53.6913 41.6299C52.6431 42.2588 51.5126 42.723 50.2997 43.0225C49.1018 43.3219 47.9188 43.4642 46.7509 43.4492ZM75.4784 18.6973L74.6024 23.6162H60.6093L61.4628 18.6973H75.4784ZM65.7079 12.6777H72.5585L68.6503 35.4307C68.5904 35.9548 68.5904 36.389 68.6503 36.7334C68.7251 37.0778 68.8899 37.3473 69.1444 37.542C69.4139 37.7217 69.8257 37.8265 70.3798 37.8564C70.7092 37.8714 71.0311 37.8639 71.3456 37.834C71.66 37.7891 71.9745 37.7516 72.2889 37.7217L71.7948 42.8652C71.1809 43.0599 70.552 43.2021 69.9081 43.292C69.2792 43.3818 68.6353 43.4268 67.9764 43.4268C66.494 43.3968 65.2662 43.0898 64.2928 42.5059C63.3195 41.9069 62.6158 41.0684 62.1815 39.9902C61.7622 38.8971 61.62 37.6243 61.7548 36.1719L65.7079 12.6777ZM87.1581 8.5L81.161 43H74.288L80.285 8.5H87.1581ZM82.5536 29.9951L80.9364 30.0625C81.0861 28.6849 81.3931 27.2998 81.8573 25.9072C82.3365 24.4997 82.9878 23.2119 83.8114 22.0439C84.635 20.861 85.6457 19.9176 86.8436 19.2139C88.0415 18.5101 89.4416 18.1807 91.0438 18.2256C92.4364 18.2555 93.5894 18.54 94.5028 19.0791C95.4162 19.6032 96.1275 20.3145 96.6366 21.2129C97.1607 22.0964 97.5051 23.1071 97.6698 24.2451C97.8345 25.3682 97.8495 26.5436 97.7147 27.7715L95.1766 43H88.2811L90.8641 27.7041C90.939 26.9404 90.9165 26.2591 90.7968 25.6602C90.6919 25.0612 90.4224 24.5895 89.9882 24.2451C89.5689 23.8857 88.94 23.6911 88.1014 23.6611C87.1581 23.6462 86.357 23.8184 85.6981 24.1777C85.0542 24.5221 84.5227 25.0013 84.1034 25.6152C83.6841 26.2292 83.3547 26.918 83.1151 27.6816C82.8755 28.4453 82.6884 29.2165 82.5536 29.9951ZM111.012 18.6973L106.811 43H99.9384L104.161 18.6973H111.012ZM104.835 12.5205C104.805 11.4274 105.164 10.5589 105.913 9.91504C106.677 9.25618 107.583 8.91927 108.631 8.9043C109.634 8.88932 110.517 9.1888 111.281 9.80273C112.045 10.4017 112.434 11.2253 112.449 12.2734C112.464 13.3665 112.09 14.2425 111.326 14.9014C110.577 15.5452 109.686 15.8747 108.653 15.8896C107.65 15.9046 106.766 15.6126 106.003 15.0137C105.254 14.4147 104.865 13.5837 104.835 12.5205ZM121.591 24.2676L118.311 43H111.461L115.683 18.6973H122.085L121.591 24.2676ZM119.726 29.9951L118.177 30.0625C118.326 28.61 118.641 27.1725 119.12 25.75C119.599 24.3275 120.258 23.0472 121.097 21.9092C121.95 20.7562 122.998 19.8503 124.241 19.1914C125.484 18.5176 126.944 18.1956 128.621 18.2256C129.969 18.2705 131.077 18.5625 131.945 19.1016C132.829 19.6257 133.502 20.3294 133.967 21.2129C134.446 22.0814 134.753 23.0697 134.888 24.1777C135.022 25.2708 135.022 26.4089 134.888 27.5918L132.327 43H125.432L128.037 27.5244C128.112 26.7907 128.089 26.1318 127.97 25.5479C127.85 24.9639 127.573 24.5146 127.139 24.2002C126.719 23.8708 126.09 23.6911 125.252 23.6611C124.353 23.6462 123.582 23.8258 122.938 24.2002C122.294 24.5596 121.755 25.0537 121.321 25.6826C120.887 26.2965 120.543 26.9854 120.288 27.749C120.048 28.4977 119.861 29.2464 119.726 29.9951ZM149.599 8.47754L143.602 43H136.752L142.749 8.47754H149.599ZM163.054 18.6973L150.633 30.9609L144.209 36.5986L142.12 31.4775L147.398 25.7949L154.339 18.6973H163.054ZM151.531 43L146.724 31.5898L152.025 27.8613L159.078 43H151.531ZM183.201 10.2969L186.885 24.8066L195.622 10.2969H203.663L189.49 31.5225L187.514 43H180.259L182.392 30.8262L175.699 10.3193L183.201 10.2969ZM199.687 31.2305L199.732 30.7588C199.927 29.0218 200.354 27.3896 201.013 25.8623C201.671 24.335 202.547 22.9948 203.641 21.8418C204.734 20.6888 206.021 19.7904 207.504 19.1465C208.986 18.5026 210.648 18.2031 212.49 18.248C214.257 18.278 215.784 18.6299 217.072 19.3037C218.375 19.9626 219.438 20.861 220.262 21.999C221.085 23.137 221.669 24.4398 222.014 25.9072C222.358 27.3747 222.455 28.932 222.306 30.5791L222.261 31.0732C222.066 32.7952 221.632 34.4124 220.958 35.9248C220.284 37.4372 219.401 38.7624 218.307 39.9004C217.214 41.0384 215.927 41.9294 214.444 42.5732C212.962 43.2021 211.307 43.4941 209.48 43.4492C207.728 43.4193 206.201 43.0749 204.898 42.416C203.611 41.7572 202.555 40.8662 201.731 39.7432C200.908 38.6201 200.324 37.3324 199.979 35.8799C199.635 34.4274 199.538 32.8776 199.687 31.2305ZM206.583 30.7588L206.538 31.2305C206.493 31.9043 206.471 32.6305 206.471 33.4092C206.486 34.1729 206.59 34.9066 206.785 35.6104C206.995 36.3141 207.339 36.8906 207.818 37.3398C208.312 37.7741 209.001 38.0062 209.885 38.0361C210.843 38.0661 211.652 37.8714 212.31 37.4521C212.969 37.0329 213.508 36.4714 213.928 35.7676C214.362 35.0488 214.691 34.2777 214.916 33.4541C215.155 32.6305 215.313 31.8294 215.388 31.0508L215.432 30.5791C215.492 29.9202 215.515 29.2015 215.5 28.4229C215.5 27.6292 215.395 26.8805 215.185 26.1768C214.991 25.458 214.646 24.874 214.152 24.4248C213.658 23.9606 212.969 23.7135 212.086 23.6836C211.127 23.6536 210.311 23.8558 209.638 24.29C208.979 24.7243 208.44 25.3008 208.02 26.0195C207.601 26.7383 207.279 27.5169 207.055 28.3555C206.83 29.179 206.673 29.9801 206.583 30.7588ZM238.612 36.7783L241.757 18.6973H248.63L244.407 43H238.006L238.612 36.7783ZM240.027 32.1514L241.914 32.1064C241.749 33.499 241.435 34.8841 240.971 36.2617C240.521 37.6243 239.892 38.8522 239.084 39.9453C238.29 41.0384 237.294 41.9069 236.097 42.5508C234.914 43.1947 233.514 43.5016 231.896 43.4717C230.564 43.4417 229.441 43.1872 228.527 42.708C227.614 42.2288 226.88 41.57 226.326 40.7314C225.787 39.8929 225.42 38.9346 225.225 37.8564C225.046 36.7783 225.016 35.6328 225.136 34.4199L227.764 18.6973H234.614L231.941 34.5098C231.896 34.974 231.896 35.4157 231.941 35.835C232.001 36.2542 232.121 36.6211 232.301 36.9355C232.48 37.25 232.735 37.5046 233.064 37.6992C233.409 37.8789 233.85 37.9762 234.39 37.9912C235.602 38.0511 236.591 37.8115 237.354 37.2725C238.133 36.7184 238.732 35.9922 239.151 35.0938C239.585 34.1803 239.877 33.1995 240.027 32.1514ZM258.849 24.7393L255.682 43H248.832L253.055 18.6973H259.456L258.849 24.7393ZM266.778 18.4951L265.925 25.0312C265.535 24.9714 265.154 24.9189 264.779 24.874C264.405 24.8291 264.023 24.8066 263.634 24.8066C262.78 24.7917 262.009 24.8965 261.32 25.1211C260.646 25.3307 260.055 25.6527 259.546 26.0869C259.052 26.5212 258.64 27.0602 258.31 27.7041C257.981 28.333 257.734 29.0518 257.569 29.8604L256.311 29.2314C256.476 28.0785 256.731 26.8656 257.075 25.5928C257.419 24.305 257.899 23.0996 258.513 21.9766C259.141 20.8385 259.943 19.9251 260.916 19.2363C261.904 18.5326 263.117 18.1807 264.555 18.1807C264.929 18.1807 265.296 18.2106 265.655 18.2705C266.03 18.3304 266.404 18.4053 266.778 18.4951ZM287.599 43H280.21L281.243 37.3398L287.824 37.3848C289.771 37.3848 291.395 36.9131 292.698 35.9697C294.001 35.0264 295.027 33.791 295.775 32.2637C296.524 30.7214 297.026 29.0817 297.28 27.3447L297.46 25.8398C297.595 24.7767 297.647 23.6836 297.617 22.5605C297.587 21.4225 297.4 20.3669 297.056 19.3936C296.711 18.4202 296.157 17.6266 295.393 17.0127C294.63 16.3838 293.574 16.0469 292.226 16.002L284.769 15.9795L285.758 10.2969L292.451 10.3193C294.637 10.3643 296.546 10.8135 298.179 11.667C299.826 12.5055 301.166 13.651 302.199 15.1035C303.247 16.541 303.981 18.1882 304.4 20.0449C304.835 21.8867 304.932 23.8258 304.692 25.8623L304.513 27.3672C304.228 29.5684 303.614 31.6198 302.671 33.5215C301.727 35.4232 300.515 37.0853 299.032 38.5078C297.55 39.9303 295.843 41.0384 293.911 41.832C291.979 42.6257 289.876 43.015 287.599 43ZM289.958 10.2969L284.275 43H277.155L282.815 10.2969H289.958ZM315.766 24.7393L312.599 43H305.748L309.971 18.6973H316.372L315.766 24.7393ZM323.694 18.4951L322.841 25.0312C322.451 24.9714 322.07 24.9189 321.695 24.874C321.321 24.8291 320.939 24.8066 320.55 24.8066C319.696 24.7917 318.925 24.8965 318.236 25.1211C317.562 25.3307 316.971 25.6527 316.462 26.0869C315.968 26.5212 315.556 27.0602 315.226 27.7041C314.897 28.333 314.65 29.0518 314.485 29.8604L313.227 29.2314C313.392 28.0785 313.647 26.8656 313.991 25.5928C314.335 24.305 314.815 23.0996 315.429 21.9766C316.057 20.8385 316.859 19.9251 317.832 19.2363C318.82 18.5326 320.033 18.1807 321.471 18.1807C321.845 18.1807 322.212 18.2106 322.571 18.2705C322.946 18.3304 323.32 18.4053 323.694 18.4951ZM333.779 18.6973L329.579 43H322.706L326.929 18.6973H333.779ZM327.602 12.5205C327.572 11.4274 327.932 10.5589 328.681 9.91504C329.444 9.25618 330.35 8.91927 331.398 8.9043C332.402 8.88932 333.285 9.1888 334.049 9.80273C334.812 10.4017 335.202 11.2253 335.217 12.2734C335.232 13.3665 334.857 14.2425 334.094 14.9014C333.345 15.5452 332.454 15.8747 331.421 15.8896C330.418 15.9046 329.534 15.6126 328.77 15.0137C328.022 14.4147 327.632 13.5837 327.602 12.5205ZM344.358 24.2676L341.079 43H334.228L338.451 18.6973H344.852L344.358 24.2676ZM342.494 29.9951L340.944 30.0625C341.094 28.61 341.408 27.1725 341.888 25.75C342.367 24.3275 343.026 23.0472 343.864 21.9092C344.718 20.7562 345.766 19.8503 347.009 19.1914C348.252 18.5176 349.711 18.1956 351.389 18.2256C352.736 18.2705 353.844 18.5625 354.713 19.1016C355.596 19.6257 356.27 20.3294 356.734 21.2129C357.213 22.0814 357.52 23.0697 357.655 24.1777C357.79 25.2708 357.79 26.4089 357.655 27.5918L355.095 43H348.199L350.805 27.5244C350.879 26.7907 350.857 26.1318 350.737 25.5479C350.617 24.9639 350.34 24.5146 349.906 24.2002C349.487 23.8708 348.858 23.6911 348.019 23.6611C347.121 23.6462 346.35 23.8258 345.706 24.2002C345.062 24.5596 344.523 25.0537 344.089 25.6826C343.655 26.2965 343.31 26.9854 343.056 27.749C342.816 28.4977 342.629 29.2464 342.494 29.9951ZM372.367 8.47754L366.37 43H359.519L365.516 8.47754H372.367ZM385.821 18.6973L373.4 30.9609L366.976 36.5986L364.888 31.4775L370.166 25.7949L377.106 18.6973H385.821ZM374.299 43L369.492 31.5898L374.793 27.8613L381.846 43H374.299ZM12.2059 64.2969L24.0204 64.3193C26.0119 64.3493 27.8313 64.7161 29.4784 65.4199C31.1405 66.1087 32.4358 67.1569 33.3641 68.5645C34.2925 69.972 34.6818 71.7764 34.5321 73.9775C34.3973 75.7594 33.9781 77.2718 33.2743 78.5146C32.5855 79.7425 31.6571 80.7907 30.4891 81.6592C29.3212 82.5127 27.9585 83.2614 26.4012 83.9053L23.8632 85.1855H13.1044L14.0702 79.5029L21.4374 79.5479C22.4706 79.5329 23.4065 79.3307 24.245 78.9414C25.0835 78.5521 25.7723 77.998 26.3114 77.2793C26.8505 76.5456 27.1874 75.6471 27.3221 74.584C27.4569 73.7005 27.412 72.9219 27.1874 72.248C26.9777 71.5742 26.5809 71.0426 25.9969 70.6533C25.4279 70.264 24.6942 70.0469 23.7958 70.002L18.3602 69.9795L13.6659 97H6.54578L12.2059 64.2969ZM24.2675 97L19.663 82.4678L26.8729 82.4453L31.8817 96.6406L31.8593 97H24.2675ZM46.7509 97.4492C45.0738 97.4193 43.5539 97.1048 42.1913 96.5059C40.8436 95.9069 39.7056 95.0833 38.7772 94.0352C37.8488 92.972 37.1675 91.7367 36.7333 90.3291C36.299 88.9215 36.1418 87.3867 36.2616 85.7246L36.3514 84.8486C36.5311 83.1117 36.9429 81.4795 37.5868 79.9521C38.2456 78.4248 39.1216 77.0771 40.2147 75.9092C41.3078 74.7262 42.5956 73.8128 44.078 73.1689C45.5754 72.5101 47.245 72.2031 49.0868 72.248C50.7788 72.278 52.2313 72.6224 53.4442 73.2812C54.6721 73.9251 55.6604 74.8011 56.4091 75.9092C57.1727 77.0173 57.6968 78.2751 57.9813 79.6826C58.2658 81.0902 58.3257 82.5801 58.161 84.1523L57.7567 87.0273H38.7323L39.451 82.5127L51.6024 82.5352L51.7372 81.9287C51.842 81.165 51.8046 80.4688 51.6249 79.8398C51.4452 79.196 51.1083 78.6794 50.6141 78.29C50.12 77.9007 49.4537 77.6911 48.6151 77.6611C47.6418 77.6462 46.8257 77.8558 46.1669 78.29C45.508 78.7243 44.9764 79.3083 44.5721 80.042C44.1678 80.7607 43.8534 81.5469 43.6288 82.4004C43.4191 83.2389 43.2619 84.055 43.1571 84.8486L43.0673 85.7021C43.0074 86.4808 43.0298 87.237 43.1346 87.9707C43.2544 88.7044 43.479 89.3708 43.8085 89.9697C44.1529 90.5537 44.6171 91.0329 45.201 91.4072C45.8 91.7666 46.5412 91.9613 47.4247 91.9912C48.5777 92.0212 49.6483 91.7965 50.6366 91.3174C51.6399 90.8382 52.5383 90.1943 53.3319 89.3857L56.2968 93.1367C55.608 94.1549 54.7395 94.986 53.6913 95.6299C52.6431 96.2588 51.5126 96.723 50.2997 97.0225C49.1018 97.3219 47.9188 97.4642 46.7509 97.4492ZM75.4784 72.6973L74.6024 77.6162H60.6093L61.4628 72.6973H75.4784ZM65.7079 66.6777H72.5585L68.6503 89.4307C68.5904 89.9548 68.5904 90.389 68.6503 90.7334C68.7251 91.0778 68.8899 91.3473 69.1444 91.542C69.4139 91.7217 69.8257 91.8265 70.3798 91.8564C70.7092 91.8714 71.0311 91.8639 71.3456 91.834C71.66 91.7891 71.9745 91.7516 72.2889 91.7217L71.7948 96.8652C71.1809 97.0599 70.552 97.2021 69.9081 97.292C69.2792 97.3818 68.6353 97.4268 67.9764 97.4268C66.494 97.3968 65.2662 97.0898 64.2928 96.5059C63.3195 95.9069 62.6158 95.0684 62.1815 93.9902C61.7622 92.8971 61.62 91.6243 61.7548 90.1719L65.7079 66.6777ZM87.1581 62.5L81.161 97H74.288L80.285 62.5H87.1581ZM82.5536 83.9951L80.9364 84.0625C81.0861 82.6849 81.3931 81.2998 81.8573 79.9072C82.3365 78.4997 82.9878 77.2119 83.8114 76.0439C84.635 74.861 85.6457 73.9176 86.8436 73.2139C88.0415 72.5101 89.4416 72.1807 91.0438 72.2256C92.4364 72.2555 93.5894 72.54 94.5028 73.0791C95.4162 73.6032 96.1275 74.3145 96.6366 75.2129C97.1607 76.0964 97.5051 77.1071 97.6698 78.2451C97.8345 79.3682 97.8495 80.5436 97.7147 81.7715L95.1766 97H88.2811L90.8641 81.7041C90.939 80.9404 90.9165 80.2591 90.7968 79.6602C90.6919 79.0612 90.4224 78.5895 89.9882 78.2451C89.5689 77.8857 88.94 77.6911 88.1014 77.6611C87.1581 77.6462 86.357 77.8184 85.6981 78.1777C85.0542 78.5221 84.5227 79.0013 84.1034 79.6152C83.6841 80.2292 83.3547 80.918 83.1151 81.6816C82.8755 82.4453 82.6884 83.2165 82.5536 83.9951ZM111.012 72.6973L106.811 97H99.9384L104.161 72.6973H111.012ZM104.835 66.5205C104.805 65.4274 105.164 64.5589 105.913 63.915C106.677 63.2562 107.583 62.9193 108.631 62.9043C109.634 62.8893 110.517 63.1888 111.281 63.8027C112.045 64.4017 112.434 65.2253 112.449 66.2734C112.464 67.3665 112.09 68.2425 111.326 68.9014C110.577 69.5452 109.686 69.8747 108.653 69.8896C107.65 69.9046 106.766 69.6126 106.003 69.0137C105.254 68.4147 104.865 67.5837 104.835 66.5205ZM121.591 78.2676L118.311 97H111.461L115.683 72.6973H122.085L121.591 78.2676ZM119.726 83.9951L118.177 84.0625C118.326 82.61 118.641 81.1725 119.12 79.75C119.599 78.3275 120.258 77.0472 121.097 75.9092C121.95 74.7562 122.998 73.8503 124.241 73.1914C125.484 72.5176 126.944 72.1956 128.621 72.2256C129.969 72.2705 131.077 72.5625 131.945 73.1016C132.829 73.6257 133.502 74.3294 133.967 75.2129C134.446 76.0814 134.753 77.0697 134.888 78.1777C135.022 79.2708 135.022 80.4089 134.888 81.5918L132.327 97H125.432L128.037 81.5244C128.112 80.7907 128.089 80.1318 127.97 79.5479C127.85 78.9639 127.573 78.5146 127.139 78.2002C126.719 77.8708 126.09 77.6911 125.252 77.6611C124.353 77.6462 123.582 77.8258 122.938 78.2002C122.294 78.5596 121.755 79.0537 121.321 79.6826C120.887 80.2965 120.543 80.9854 120.288 81.749C120.048 82.4977 119.861 83.2464 119.726 83.9951ZM149.599 62.4775L143.602 97H136.752L142.749 62.4775H149.599ZM163.054 72.6973L150.633 84.9609L144.209 90.5986L142.12 85.4775L147.398 79.7949L154.339 72.6973H163.054ZM151.531 97L146.724 85.5898L152.025 81.8613L159.078 97H151.531ZM183.201 64.2969L186.885 78.8066L195.622 64.2969H203.663L189.49 85.5225L187.514 97H180.259L182.392 84.8262L175.699 64.3193L183.201 64.2969ZM199.687 85.2305L199.732 84.7588C199.927 83.0218 200.354 81.3896 201.013 79.8623C201.671 78.335 202.547 76.9948 203.641 75.8418C204.734 74.6888 206.021 73.7904 207.504 73.1465C208.986 72.5026 210.648 72.2031 212.49 72.248C214.257 72.278 215.784 72.6299 217.072 73.3037C218.375 73.9626 219.438 74.861 220.262 75.999C221.085 77.137 221.669 78.4398 222.014 79.9072C222.358 81.3747 222.455 82.932 222.306 84.5791L222.261 85.0732C222.066 86.7952 221.632 88.4124 220.958 89.9248C220.284 91.4372 219.401 92.7624 218.307 93.9004C217.214 95.0384 215.927 95.9294 214.444 96.5732C212.962 97.2021 211.307 97.4941 209.48 97.4492C207.728 97.4193 206.201 97.0749 204.898 96.416C203.611 95.7572 202.555 94.8662 201.731 93.7432C200.908 92.6201 200.324 91.3324 199.979 89.8799C199.635 88.4274 199.538 86.8776 199.687 85.2305ZM206.583 84.7588L206.538 85.2305C206.493 85.9043 206.471 86.6305 206.471 87.4092C206.486 88.1729 206.59 88.9066 206.785 89.6104C206.995 90.3141 207.339 90.8906 207.818 91.3398C208.312 91.7741 209.001 92.0062 209.885 92.0361C210.843 92.0661 211.652 91.8714 212.31 91.4521C212.969 91.0329 213.508 90.4714 213.928 89.7676C214.362 89.0488 214.691 88.2777 214.916 87.4541C215.155 86.6305 215.313 85.8294 215.388 85.0508L215.432 84.5791C215.492 83.9202 215.515 83.2015 215.5 82.4229C215.5 81.6292 215.395 80.8805 215.185 80.1768C214.991 79.458 214.646 78.874 214.152 78.4248C213.658 77.9606 212.969 77.7135 212.086 77.6836C211.127 77.6536 210.311 77.8558 209.638 78.29C208.979 78.7243 208.44 79.3008 208.02 80.0195C207.601 80.7383 207.279 81.5169 207.055 82.3555C206.83 83.179 206.673 83.9801 206.583 84.7588ZM238.612 90.7783L241.757 72.6973H248.63L244.407 97H238.006L238.612 90.7783ZM240.027 86.1514L241.914 86.1064C241.749 87.499 241.435 88.8841 240.971 90.2617C240.521 91.6243 239.892 92.8522 239.084 93.9453C238.29 95.0384 237.294 95.9069 236.097 96.5508C234.914 97.1947 233.514 97.5016 231.896 97.4717C230.564 97.4417 229.441 97.1872 228.527 96.708C227.614 96.2288 226.88 95.57 226.326 94.7314C225.787 93.8929 225.42 92.9346 225.225 91.8564C225.046 90.7783 225.016 89.6328 225.136 88.4199L227.764 72.6973H234.614L231.941 88.5098C231.896 88.974 231.896 89.4157 231.941 89.835C232.001 90.2542 232.121 90.6211 232.301 90.9355C232.48 91.25 232.735 91.5046 233.064 91.6992C233.409 91.8789 233.85 91.9762 234.39 91.9912C235.602 92.0511 236.591 91.8115 237.354 91.2725C238.133 90.7184 238.732 89.9922 239.151 89.0938C239.585 88.1803 239.877 87.1995 240.027 86.1514ZM258.849 78.7393L255.682 97H248.832L253.055 72.6973H259.456L258.849 78.7393ZM266.778 72.4951L265.925 79.0312C265.535 78.9714 265.154 78.9189 264.779 78.874C264.405 78.8291 264.023 78.8066 263.634 78.8066C262.78 78.7917 262.009 78.8965 261.32 79.1211C260.646 79.3307 260.055 79.6527 259.546 80.0869C259.052 80.5212 258.64 81.0602 258.31 81.7041C257.981 82.333 257.734 83.0518 257.569 83.8604L256.311 83.2314C256.476 82.0785 256.731 80.8656 257.075 79.5928C257.419 78.305 257.899 77.0996 258.513 75.9766C259.141 74.8385 259.943 73.9251 260.916 73.2363C261.904 72.5326 263.117 72.1807 264.555 72.1807C264.929 72.1807 265.296 72.2106 265.655 72.2705C266.03 72.3304 266.404 72.4053 266.778 72.4951ZM287.599 97H280.21L281.243 91.3398L287.824 91.3848C289.771 91.3848 291.395 90.9131 292.698 89.9697C294.001 89.0264 295.027 87.791 295.775 86.2637C296.524 84.7214 297.026 83.0817 297.28 81.3447L297.46 79.8398C297.595 78.7767 297.647 77.6836 297.617 76.5605C297.587 75.4225 297.4 74.3669 297.056 73.3936C296.711 72.4202 296.157 71.6266 295.393 71.0127C294.63 70.3838 293.574 70.0469 292.226 70.002L284.769 69.9795L285.758 64.2969L292.451 64.3193C294.637 64.3643 296.546 64.8135 298.179 65.667C299.826 66.5055 301.166 67.651 302.199 69.1035C303.247 70.541 303.981 72.1882 304.4 74.0449C304.835 75.8867 304.932 77.8258 304.692 79.8623L304.513 81.3672C304.228 83.5684 303.614 85.6198 302.671 87.5215C301.727 89.4232 300.515 91.0853 299.032 92.5078C297.55 93.9303 295.843 95.0384 293.911 95.832C291.979 96.6257 289.876 97.015 287.599 97ZM289.958 64.2969L284.275 97H277.155L282.815 64.2969H289.958ZM315.766 78.7393L312.599 97H305.748L309.971 72.6973H316.372L315.766 78.7393ZM323.694 72.4951L322.841 79.0312C322.451 78.9714 322.07 78.9189 321.695 78.874C321.321 78.8291 320.939 78.8066 320.55 78.8066C319.696 78.7917 318.925 78.8965 318.236 79.1211C317.562 79.3307 316.971 79.6527 316.462 80.0869C315.968 80.5212 315.556 81.0602 315.226 81.7041C314.897 82.333 314.65 83.0518 314.485 83.8604L313.227 83.2314C313.392 82.0785 313.647 80.8656 313.991 79.5928C314.335 78.305 314.815 77.0996 315.429 75.9766C316.057 74.8385 316.859 73.9251 317.832 73.2363C318.82 72.5326 320.033 72.1807 321.471 72.1807C321.845 72.1807 322.212 72.2106 322.571 72.2705C322.946 72.3304 323.32 72.4053 323.694 72.4951ZM333.779 72.6973L329.579 97H322.706L326.929 72.6973H333.779ZM327.602 66.5205C327.572 65.4274 327.932 64.5589 328.681 63.915C329.444 63.2562 330.35 62.9193 331.398 62.9043C332.402 62.8893 333.285 63.1888 334.049 63.8027C334.812 64.4017 335.202 65.2253 335.217 66.2734C335.232 67.3665 334.857 68.2425 334.094 68.9014C333.345 69.5452 332.454 69.8747 331.421 69.8896C330.418 69.9046 329.534 69.6126 328.77 69.0137C328.022 68.4147 327.632 67.5837 327.602 66.5205ZM344.358 78.2676L341.079 97H334.228L338.451 72.6973H344.852L344.358 78.2676ZM342.494 83.9951L340.944 84.0625C341.094 82.61 341.408 81.1725 341.888 79.75C342.367 78.3275 343.026 77.0472 343.864 75.9092C344.718 74.7562 345.766 73.8503 347.009 73.1914C348.252 72.5176 349.711 72.1956 351.389 72.2256C352.736 72.2705 353.844 72.5625 354.713 73.1016C355.596 73.6257 356.27 74.3294 356.734 75.2129C357.213 76.0814 357.52 77.0697 357.655 78.1777C357.79 79.2708 357.79 80.4089 357.655 81.5918L355.095 97H348.199L350.805 81.5244C350.879 80.7907 350.857 80.1318 350.737 79.5479C350.617 78.9639 350.34 78.5146 349.906 78.2002C349.487 77.8708 348.858 77.6911 348.019 77.6611C347.121 77.6462 346.35 77.8258 345.706 78.2002C345.062 78.5596 344.523 79.0537 344.089 79.6826C343.655 80.2965 343.31 80.9854 343.056 81.749C342.816 82.4977 342.629 83.2464 342.494 83.9951ZM372.367 62.4775L366.37 97H359.519L365.516 62.4775H372.367ZM385.821 72.6973L373.4 84.9609L366.976 90.5986L364.888 85.4775L370.166 79.7949L377.106 72.6973H385.821ZM374.299 97L369.492 85.5898L374.793 81.8613L381.846 97H374.299ZM12.2059 118.297L24.0204 118.319C26.0119 118.349 27.8313 118.716 29.4784 119.42C31.1405 120.109 32.4358 121.157 33.3641 122.564C34.2925 123.972 34.6818 125.776 34.5321 127.978C34.3973 129.759 33.9781 131.272 33.2743 132.515C32.5855 133.743 31.6571 134.791 30.4891 135.659C29.3212 136.513 27.9585 137.261 26.4012 137.905L23.8632 139.186H13.1044L14.0702 133.503L21.4374 133.548C22.4706 133.533 23.4065 133.331 24.245 132.941C25.0835 132.552 25.7723 131.998 26.3114 131.279C26.8505 130.546 27.1874 129.647 27.3221 128.584C27.4569 127.701 27.412 126.922 27.1874 126.248C26.9777 125.574 26.5809 125.043 25.9969 124.653C25.4279 124.264 24.6942 124.047 23.7958 124.002L18.3602 123.979L13.6659 151H6.54578L12.2059 118.297ZM24.2675 151L19.663 136.468L26.8729 136.445L31.8817 150.641L31.8593 151H24.2675ZM46.7509 151.449C45.0738 151.419 43.5539 151.105 42.1913 150.506C40.8436 149.907 39.7056 149.083 38.7772 148.035C37.8488 146.972 37.1675 145.737 36.7333 144.329C36.299 142.922 36.1418 141.387 36.2616 139.725L36.3514 138.849C36.5311 137.112 36.9429 135.479 37.5868 133.952C38.2456 132.425 39.1216 131.077 40.2147 129.909C41.3078 128.726 42.5956 127.813 44.078 127.169C45.5754 126.51 47.245 126.203 49.0868 126.248C50.7788 126.278 52.2313 126.622 53.4442 127.281C54.6721 127.925 55.6604 128.801 56.4091 129.909C57.1727 131.017 57.6968 132.275 57.9813 133.683C58.2658 135.09 58.3257 136.58 58.161 138.152L57.7567 141.027H38.7323L39.451 136.513L51.6024 136.535L51.7372 135.929C51.842 135.165 51.8046 134.469 51.6249 133.84C51.4452 133.196 51.1083 132.679 50.6141 132.29C50.12 131.901 49.4537 131.691 48.6151 131.661C47.6418 131.646 46.8257 131.856 46.1669 132.29C45.508 132.724 44.9764 133.308 44.5721 134.042C44.1678 134.761 43.8534 135.547 43.6288 136.4C43.4191 137.239 43.2619 138.055 43.1571 138.849L43.0673 139.702C43.0074 140.481 43.0298 141.237 43.1346 141.971C43.2544 142.704 43.479 143.371 43.8085 143.97C44.1529 144.554 44.6171 145.033 45.201 145.407C45.8 145.767 46.5412 145.961 47.4247 145.991C48.5777 146.021 49.6483 145.797 50.6366 145.317C51.6399 144.838 52.5383 144.194 53.3319 143.386L56.2968 147.137C55.608 148.155 54.7395 148.986 53.6913 149.63C52.6431 150.259 51.5126 150.723 50.2997 151.022C49.1018 151.322 47.9188 151.464 46.7509 151.449ZM75.4784 126.697L74.6024 131.616H60.6093L61.4628 126.697H75.4784ZM65.7079 120.678H72.5585L68.6503 143.431C68.5904 143.955 68.5904 144.389 68.6503 144.733C68.7251 145.078 68.8899 145.347 69.1444 145.542C69.4139 145.722 69.8257 145.826 70.3798 145.856C70.7092 145.871 71.0311 145.864 71.3456 145.834C71.66 145.789 71.9745 145.752 72.2889 145.722L71.7948 150.865C71.1809 151.06 70.552 151.202 69.9081 151.292C69.2792 151.382 68.6353 151.427 67.9764 151.427C66.494 151.397 65.2662 151.09 64.2928 150.506C63.3195 149.907 62.6158 149.068 62.1815 147.99C61.7622 146.897 61.62 145.624 61.7548 144.172L65.7079 120.678ZM87.1581 116.5L81.161 151H74.288L80.285 116.5H87.1581ZM82.5536 137.995L80.9364 138.062C81.0861 136.685 81.3931 135.3 81.8573 133.907C82.3365 132.5 82.9878 131.212 83.8114 130.044C84.635 128.861 85.6457 127.918 86.8436 127.214C88.0415 126.51 89.4416 126.181 91.0438 126.226C92.4364 126.256 93.5894 126.54 94.5028 127.079C95.4162 127.603 96.1275 128.314 96.6366 129.213C97.1607 130.096 97.5051 131.107 97.6698 132.245C97.8345 133.368 97.8495 134.544 97.7147 135.771L95.1766 151H88.2811L90.8641 135.704C90.939 134.94 90.9165 134.259 90.7968 133.66C90.6919 133.061 90.4224 132.59 89.9882 132.245C89.5689 131.886 88.94 131.691 88.1014 131.661C87.1581 131.646 86.357 131.818 85.6981 132.178C85.0542 132.522 84.5227 133.001 84.1034 133.615C83.6841 134.229 83.3547 134.918 83.1151 135.682C82.8755 136.445 82.6884 137.216 82.5536 137.995ZM111.012 126.697L106.811 151H99.9384L104.161 126.697H111.012ZM104.835 120.521C104.805 119.427 105.164 118.559 105.913 117.915C106.677 117.256 107.583 116.919 108.631 116.904C109.634 116.889 110.517 117.189 111.281 117.803C112.045 118.402 112.434 119.225 112.449 120.273C112.464 121.367 112.09 122.243 111.326 122.901C110.577 123.545 109.686 123.875 108.653 123.89C107.65 123.905 106.766 123.613 106.003 123.014C105.254 122.415 104.865 121.584 104.835 120.521ZM121.591 132.268L118.311 151H111.461L115.683 126.697H122.085L121.591 132.268ZM119.726 137.995L118.177 138.062C118.326 136.61 118.641 135.173 119.12 133.75C119.599 132.327 120.258 131.047 121.097 129.909C121.95 128.756 122.998 127.85 124.241 127.191C125.484 126.518 126.944 126.196 128.621 126.226C129.969 126.271 131.077 126.562 131.945 127.102C132.829 127.626 133.502 128.329 133.967 129.213C134.446 130.081 134.753 131.07 134.888 132.178C135.022 133.271 135.022 134.409 134.888 135.592L132.327 151H125.432L128.037 135.524C128.112 134.791 128.089 134.132 127.97 133.548C127.85 132.964 127.573 132.515 127.139 132.2C126.719 131.871 126.09 131.691 125.252 131.661C124.353 131.646 123.582 131.826 122.938 132.2C122.294 132.56 121.755 133.054 121.321 133.683C120.887 134.297 120.543 134.985 120.288 135.749C120.048 136.498 119.861 137.246 119.726 137.995ZM149.599 116.478L143.602 151H136.752L142.749 116.478H149.599ZM163.054 126.697L150.633 138.961L144.209 144.599L142.12 139.478L147.398 133.795L154.339 126.697H163.054ZM151.531 151L146.724 139.59L152.025 135.861L159.078 151H151.531ZM183.201 118.297L186.885 132.807L195.622 118.297H203.663L189.49 139.522L187.514 151H180.259L182.392 138.826L175.699 118.319L183.201 118.297ZM199.687 139.23L199.732 138.759C199.927 137.022 200.354 135.39 201.013 133.862C201.671 132.335 202.547 130.995 203.641 129.842C204.734 128.689 206.021 127.79 207.504 127.146C208.986 126.503 210.648 126.203 212.49 126.248C214.257 126.278 215.784 126.63 217.072 127.304C218.375 127.963 219.438 128.861 220.262 129.999C221.085 131.137 221.669 132.44 222.014 133.907C222.358 135.375 222.455 136.932 222.306 138.579L222.261 139.073C222.066 140.795 221.632 142.412 220.958 143.925C220.284 145.437 219.401 146.762 218.307 147.9C217.214 149.038 215.927 149.929 214.444 150.573C212.962 151.202 211.307 151.494 209.48 151.449C207.728 151.419 206.201 151.075 204.898 150.416C203.611 149.757 202.555 148.866 201.731 147.743C200.908 146.62 200.324 145.332 199.979 143.88C199.635 142.427 199.538 140.878 199.687 139.23ZM206.583 138.759L206.538 139.23C206.493 139.904 206.471 140.631 206.471 141.409C206.486 142.173 206.59 142.907 206.785 143.61C206.995 144.314 207.339 144.891 207.818 145.34C208.312 145.774 209.001 146.006 209.885 146.036C210.843 146.066 211.652 145.871 212.31 145.452C212.969 145.033 213.508 144.471 213.928 143.768C214.362 143.049 214.691 142.278 214.916 141.454C215.155 140.631 215.313 139.829 215.388 139.051L215.432 138.579C215.492 137.92 215.515 137.201 215.5 136.423C215.5 135.629 215.395 134.881 215.185 134.177C214.991 133.458 214.646 132.874 214.152 132.425C213.658 131.961 212.969 131.714 212.086 131.684C211.127 131.654 210.311 131.856 209.638 132.29C208.979 132.724 208.44 133.301 208.02 134.02C207.601 134.738 207.279 135.517 207.055 136.355C206.83 137.179 206.673 137.98 206.583 138.759ZM238.612 144.778L241.757 126.697H248.63L244.407 151H238.006L238.612 144.778ZM240.027 140.151L241.914 140.106C241.749 141.499 241.435 142.884 240.971 144.262C240.521 145.624 239.892 146.852 239.084 147.945C238.29 149.038 237.294 149.907 236.097 150.551C234.914 151.195 233.514 151.502 231.896 151.472C230.564 151.442 229.441 151.187 228.527 150.708C227.614 150.229 226.88 149.57 226.326 148.731C225.787 147.893 225.42 146.935 225.225 145.856C225.046 144.778 225.016 143.633 225.136 142.42L227.764 126.697H234.614L231.941 142.51C231.896 142.974 231.896 143.416 231.941 143.835C232.001 144.254 232.121 144.621 232.301 144.936C232.48 145.25 232.735 145.505 233.064 145.699C233.409 145.879 233.85 145.976 234.39 145.991C235.602 146.051 236.591 145.812 237.354 145.272C238.133 144.718 238.732 143.992 239.151 143.094C239.585 142.18 239.877 141.2 240.027 140.151ZM258.849 132.739L255.682 151H248.832L253.055 126.697H259.456L258.849 132.739ZM266.778 126.495L265.925 133.031C265.535 132.971 265.154 132.919 264.779 132.874C264.405 132.829 264.023 132.807 263.634 132.807C262.78 132.792 262.009 132.896 261.32 133.121C260.646 133.331 260.055 133.653 259.546 134.087C259.052 134.521 258.64 135.06 258.31 135.704C257.981 136.333 257.734 137.052 257.569 137.86L256.311 137.231C256.476 136.078 256.731 134.866 257.075 133.593C257.419 132.305 257.899 131.1 258.513 129.977C259.141 128.839 259.943 127.925 260.916 127.236C261.904 126.533 263.117 126.181 264.555 126.181C264.929 126.181 265.296 126.211 265.655 126.271C266.03 126.33 266.404 126.405 266.778 126.495ZM287.599 151H280.21L281.243 145.34L287.824 145.385C289.771 145.385 291.395 144.913 292.698 143.97C294.001 143.026 295.027 141.791 295.775 140.264C296.524 138.721 297.026 137.082 297.28 135.345L297.46 133.84C297.595 132.777 297.647 131.684 297.617 130.561C297.587 129.423 297.4 128.367 297.056 127.394C296.711 126.42 296.157 125.627 295.393 125.013C294.63 124.384 293.574 124.047 292.226 124.002L284.769 123.979L285.758 118.297L292.451 118.319C294.637 118.364 296.546 118.813 298.179 119.667C299.826 120.506 301.166 121.651 302.199 123.104C303.247 124.541 303.981 126.188 304.4 128.045C304.835 129.887 304.932 131.826 304.692 133.862L304.513 135.367C304.228 137.568 303.614 139.62 302.671 141.521C301.727 143.423 300.515 145.085 299.032 146.508C297.55 147.93 295.843 149.038 293.911 149.832C291.979 150.626 289.876 151.015 287.599 151ZM289.958 118.297L284.275 151H277.155L282.815 118.297H289.958ZM315.766 132.739L312.599 151H305.748L309.971 126.697H316.372L315.766 132.739ZM323.694 126.495L322.841 133.031C322.451 132.971 322.07 132.919 321.695 132.874C321.321 132.829 320.939 132.807 320.55 132.807C319.696 132.792 318.925 132.896 318.236 133.121C317.562 133.331 316.971 133.653 316.462 134.087C315.968 134.521 315.556 135.06 315.226 135.704C314.897 136.333 314.65 137.052 314.485 137.86L313.227 137.231C313.392 136.078 313.647 134.866 313.991 133.593C314.335 132.305 314.815 131.1 315.429 129.977C316.057 128.839 316.859 127.925 317.832 127.236C318.82 126.533 320.033 126.181 321.471 126.181C321.845 126.181 322.212 126.211 322.571 126.271C322.946 126.33 323.32 126.405 323.694 126.495ZM333.779 126.697L329.579 151H322.706L326.929 126.697H333.779ZM327.602 120.521C327.572 119.427 327.932 118.559 328.681 117.915C329.444 117.256 330.35 116.919 331.398 116.904C332.402 116.889 333.285 117.189 334.049 117.803C334.812 118.402 335.202 119.225 335.217 120.273C335.232 121.367 334.857 122.243 334.094 122.901C333.345 123.545 332.454 123.875 331.421 123.89C330.418 123.905 329.534 123.613 328.77 123.014C328.022 122.415 327.632 121.584 327.602 120.521ZM344.358 132.268L341.079 151H334.228L338.451 126.697H344.852L344.358 132.268ZM342.494 137.995L340.944 138.062C341.094 136.61 341.408 135.173 341.888 133.75C342.367 132.327 343.026 131.047 343.864 129.909C344.718 128.756 345.766 127.85 347.009 127.191C348.252 126.518 349.711 126.196 351.389 126.226C352.736 126.271 353.844 126.562 354.713 127.102C355.596 127.626 356.27 128.329 356.734 129.213C357.213 130.081 357.52 131.07 357.655 132.178C357.79 133.271 357.79 134.409 357.655 135.592L355.095 151H348.199L350.805 135.524C350.879 134.791 350.857 134.132 350.737 133.548C350.617 132.964 350.34 132.515 349.906 132.2C349.487 131.871 348.858 131.691 348.019 131.661C347.121 131.646 346.35 131.826 345.706 132.2C345.062 132.56 344.523 133.054 344.089 133.683C343.655 134.297 343.31 134.985 343.056 135.749C342.816 136.498 342.629 137.246 342.494 137.995ZM372.367 116.478L366.37 151H359.519L365.516 116.478H372.367ZM385.821 126.697L373.4 138.961L366.976 144.599L364.888 139.478L370.166 133.795L377.106 126.697H385.821ZM374.299 151L369.492 139.59L374.793 135.861L381.846 151H374.299Z" fill="#C2D5FF"/>
</svg>
